<?xml version="1.0" standalone="no"?>
<!DOCTYPE svg PUBLIC "-//W3C//DTD SVG 20010904//EN"
 "http://www.w3.org/TR/2001/REC-SVG-20010904/DTD/svg10.dtd">
<svg version="1.0" xmlns="http://www.w3.org/2000/svg"
 width="1396.000000pt" height="1196.000000pt" viewBox="0 0 1396.000000 1196.000000"
 preserveAspectRatio="xMidYMid meet">

<g transform="translate(0.000000,1196.000000) scale(0.100000,-0.100000)"
fill="#0300cc29" stroke="none">
<path d="M6741 11515 c-1 -16 -10 -194 -21 -395 -11 -201 -20 -375 -20 -387 0
-23 -2 -23 -130 -23 l-130 0 0 -95 0 -95 -90 0 -90 0 0 -80 c0 -64 3 -80 15
-80 8 0 17 -10 20 -22 3 -13 4 -164 3 -336 l-3 -313 -70 -28 c-137 -53 -252
-149 -274 -227 -6 -23 -11 -139 -11 -278 l0 -240 25 51 c15 28 33 57 40 63 13
11 15 3 16 -51 2 -123 0 -131 -42 -170 l-39 -36 1 -139 c0 -110 3 -133 11
-109 12 33 55 95 66 95 4 0 7 -42 5 -92 l-2 -93 -41 -35 -40 -35 0 -132 c0
-82 4 -133 10 -133 6 0 10 8 10 18 0 20 49 96 57 88 3 -3 5 -45 4 -93 l-2 -88
-39 -35 -40 -35 0 -127 c0 -118 9 -158 25 -109 8 25 44 71 56 71 5 0 7 -10 5
-22 -3 -13 -5 -54 -5 -93 -1 -70 -2 -70 -41 -98 l-40 -28 0 -130 c0 -71 3
-129 8 -129 4 0 20 21 35 47 15 25 30 43 34 40 5 -6 7 -178 1 -181 -2 -1 -20
-14 -40 -29 l-38 -28 0 -125 c0 -104 2 -124 15 -124 8 0 15 6 15 13 0 14 49
66 51 54 0 -4 1 -23 1 -42 0 -135 1 -130 -42 -159 l-40 -26 0 -119 c0 -129 10
-152 42 -99 27 44 38 34 39 -34 0 -35 2 -71 4 -81 2 -11 -12 -28 -41 -48 l-44
-30 0 -119 c0 -132 4 -139 52 -93 l28 27 1 -45 c0 -24 2 -62 3 -84 2 -37 -2
-42 -41 -67 l-43 -28 0 -115 c0 -106 1 -115 19 -115 10 0 24 7 31 15 24 29 30
15 30 -68 l0 -84 -40 -18 -40 -18 0 -114 c0 -108 1 -113 21 -113 11 0 29 5 40
10 18 10 19 7 19 -73 l0 -84 -40 -18 -41 -18 3 -111 3 -111 38 3 37 3 0 -79 0
-79 -40 -18 -40 -18 0 -109 0 -108 40 0 41 0 -3 -82 -3 -81 -35 -12 -35 -12
-3 -106 -3 -107 29 0 c44 0 53 -19 50 -101 l-3 -72 -35 -12 -35 -12 -3 -101
-3 -102 27 0 c41 0 53 -26 54 -111 l0 -75 -37 -10 -38 -9 0 -99 c0 -98 0 -99
25 -103 39 -5 50 -30 50 -113 l0 -76 -37 -10 -38 -9 -3 -98 -3 -97 34 0 c31 0
35 -4 41 -31 3 -17 6 -62 6 -99 l0 -68 -40 -7 -40 -7 0 -94 0 -94 34 0 c30 0
34 -4 40 -31 3 -17 6 -64 6 -104 0 -78 -5 -85 -56 -85 -24 0 -24 -1 -24 -90
l0 -90 34 0 c43 0 46 -8 46 -126 l0 -94 -40 -6 -41 -7 3 -86 3 -86 38 -3 38
-3 -3 -112 -3 -112 -37 -3 -38 -3 0 -85 0 -84 40 0 40 0 0 -120 0 -120 -40 0
-40 0 0 -325 0 -325 850 0 850 0 -2 323 -3 322 -35 3 c-40 4 -48 13 -44 50 1
15 2 64 3 109 l1 82 38 3 37 3 3 83 3 82 -30 0 c-56 0 -56 1 -53 126 l3 116
35 -4 c42 -5 47 7 42 102 -3 56 -6 65 -23 68 -64 9 -60 1 -58 124 l2 113 38 0
37 0 4 64 c5 92 -1 107 -45 114 l-38 6 0 116 0 117 25 -6 c14 -2 33 -8 43 -12
16 -6 18 1 15 87 l-3 93 -37 9 -38 9 0 115 c0 101 2 114 16 109 9 -3 27 -9 41
-12 l24 -7 -3 94 -3 93 -37 9 -38 9 0 114 c0 63 3 114 8 114 4 -1 18 -7 32
-15 14 -8 28 -14 32 -15 4 0 6 44 5 97 l-2 97 -38 9 c-33 8 -37 12 -37 40 -1
18 -2 69 -3 115 -1 45 0 82 3 82 3 0 20 -9 38 -20 18 -11 35 -20 38 -20 3 0 4
45 3 100 l-3 99 -38 16 c-21 8 -38 20 -39 27 -1 12 0 131 1 186 l0 24 34 -21
c18 -12 36 -21 40 -21 3 0 6 44 6 98 l0 99 -42 19 -41 19 -1 108 c-1 59 2 107
6 107 3 0 20 -11 36 -25 17 -14 32 -25 35 -25 3 0 5 46 4 102 l-2 103 -38 20
-39 20 -1 108 c-1 59 0 107 3 107 3 0 22 -14 43 -31 l38 -31 -3 108 -3 108
-38 22 -39 21 0 102 c0 55 3 102 6 104 3 1 19 -10 35 -25 16 -16 32 -28 35
-28 3 0 5 48 3 107 l-2 108 -37 20 -37 20 -3 105 c-2 58 -2 107 0 109 1 3 20
-12 41 -33 l38 -37 -1 113 -1 113 -37 20 -38 20 0 110 1 110 38 -42 38 -43 2
115 1 115 -40 26 c-22 15 -40 29 -40 33 -4 112 -4 201 2 201 3 0 22 -19 42
-42 l36 -43 0 113 c0 120 -2 125 -59 162 -22 15 -24 22 -25 118 0 56 2 102 6
102 7 0 47 -47 64 -76 9 -15 11 7 12 96 1 63 -2 121 -6 128 -5 7 -23 23 -41
35 l-33 22 0 98 c-1 54 2 100 5 103 3 3 18 -12 33 -33 15 -21 32 -42 36 -48 5
-5 8 43 7 108 -1 123 -1 124 -54 165 -25 20 -26 23 -23 124 l3 103 30 -47 c17
-26 34 -48 38 -48 4 0 7 52 6 115 l-2 116 -38 33 -37 34 -2 89 c-3 136 -1 138
50 50 l30 -52 -1 125 -1 125 -40 42 -40 41 -1 91 c0 50 2 94 6 97 3 4 19 -14
34 -39 15 -26 31 -47 36 -47 4 0 7 50 7 111 l0 112 -42 46 c-46 50 -45 41 -39
201 l1 35 21 -25 c11 -14 27 -40 35 -57 8 -18 16 -33 18 -33 10 0 4 459 -6
498 -24 97 -157 197 -335 254 l-102 33 -3 180 c-2 99 -2 244 0 323 2 134 4
142 22 142 18 0 20 7 20 80 l0 80 -90 0 -90 0 0 95 0 95 -129 0 -129 0 -6 93
c-3 50 -13 232 -21 402 -15 296 -21 376 -24 310z m-261 -1390 l0 -45 -50 0
-50 0 0 45 0 45 50 0 50 0 0 -45z m130 0 l0 -45 -50 0 -50 0 0 45 0 45 50 0
50 0 0 -45z m370 0 l0 -45 -55 0 -55 0 0 45 0 45 55 0 55 0 0 -45z m130 0 l0
-45 -50 0 -50 0 0 45 0 45 50 0 50 0 0 -45z m-640 -159 c0 -42 -1 -44 -37 -50
-63 -10 -63 -10 -63 44 l0 50 50 0 50 0 0 -44z m140 -1 l0 -45 -50 0 -50 0 0
45 0 45 50 0 50 0 0 -45z m370 1 c0 -48 -11 -56 -72 -47 -26 3 -28 7 -28 47
l0 44 50 0 50 0 0 -44z m140 -7 l0 -52 -37 7 c-21 3 -44 6 -50 6 -9 0 -13 16
-13 45 l0 45 50 0 50 0 0 -51z m-650 -159 l0 -50 -49 0 c-48 0 -48 0 -55 38
-10 62 -10 62 49 62 l55 0 0 -50z m140 -1 l0 -50 -51 3 -51 3 -3 48 -3 47 54
0 54 0 0 -51z m370 1 c0 -55 -4 -57 -69 -44 -29 6 -31 9 -31 50 l0 44 50 0 50
0 0 -50z m140 0 l0 -50 -50 0 -50 0 0 50 0 50 50 0 50 0 0 -50z m-370 -650 l0
-120 -32 -1 c-55 0 -150 -10 -207 -20 -88 -15 -82 -23 -79 108 l3 117 39 8
c33 7 175 22 254 27 22 1 22 -1 22 -119z m295 99 c114 -15 105 -4 105 -135 0
-88 -3 -114 -13 -114 -7 0 -38 4 -68 9 -59 11 -153 20 -211 20 l-38 1 0 121 0
120 78 -6 c42 -4 109 -11 147 -16z m-675 -147 l0 -118 -67 -18 c-38 -10 -74
-20 -80 -23 -10 -4 -13 22 -13 110 l0 114 78 26 c42 15 78 26 80 27 1 0 2 -53
2 -118z m983 71 c15 -5 17 -20 17 -120 0 -88 -3 -114 -12 -110 -7 3 -43 13
-80 23 l-68 18 0 117 0 117 63 -20 c34 -11 70 -22 80 -25z m-1192 -132 c0 -50
0 -98 -1 -106 0 -8 -22 -26 -50 -40 l-50 -25 0 103 c0 86 3 106 18 119 20 18
76 48 80 43 2 -2 4 -44 3 -94z m1332 57 c27 -19 27 -21 27 -124 l0 -104 -50
25 c-30 15 -50 32 -51 43 -1 21 -1 184 0 195 1 9 32 -6 74 -35z m-740 -290
c-1 -18 -2 -69 -2 -114 l-1 -81 -131 -12 c-72 -7 -144 -15 -160 -18 l-29 -5 0
116 c0 112 1 116 23 121 59 14 140 23 217 24 l85 1 -2 -32z m284 21 c123 -16
113 -4 113 -136 l0 -115 -37 6 c-48 8 -229 25 -265 26 l-28 0 0 115 0 115 69
0 c38 0 105 -5 148 -11z m-667 -149 c0 -111 -1 -120 -19 -120 -11 0 -47 -9
-80 -19 l-61 -19 0 113 0 113 43 16 c23 8 58 20 77 25 19 5 36 10 38 10 1 1 2
-53 2 -119z m933 90 l67 -22 0 -113 0 -113 -62 19 c-35 10 -71 19 -80 19 -16
0 -18 12 -18 120 0 91 3 118 13 115 6 -2 42 -13 80 -25z m-1142 -117 c0 -38 2
-85 3 -107 2 -36 0 -39 -48 -62 -27 -13 -51 -24 -53 -24 -2 0 -2 48 -1 107 l3
107 40 23 c22 12 43 23 48 23 4 0 7 -30 8 -67z m1316 42 l43 -26 0 -104 c0
-58 -2 -105 -5 -105 -2 0 -25 10 -50 22 -31 15 -45 29 -46 42 -5 105 -2 196 5
196 5 0 29 -11 53 -25z m-726 -292 c1 -46 -3 -208 -5 -211 -2 -1 -52 -7 -112
-12 -60 -5 -131 -12 -157 -16 l-48 -7 3 119 3 119 75 11 c41 6 112 11 158 13
73 2 82 0 83 -16z m309 4 l85 -12 3 -119 3 -118 -44 6 c-36 6 -250 25 -279 26
-5 0 -8 52 -8 115 l0 115 78 -1 c42 0 115 -6 162 -12z m-692 -144 l-3 -117
-70 -18 c-38 -9 -74 -18 -78 -18 -4 0 -6 50 -5 112 l3 112 70 23 c39 12 74 22
78 22 4 1 6 -52 5 -116z m937 89 l60 -18 3 -112 c2 -86 0 -112 -10 -112 -7 1
-42 9 -78 19 l-65 18 -3 117 c-2 109 -1 117 15 112 10 -3 45 -14 78 -24z
m-1143 -174 l3 -86 -43 -21 c-23 -12 -47 -21 -52 -21 -6 0 -10 44 -10 105 l0
105 48 24 47 24 2 -21 c1 -12 4 -61 5 -109z m1358 -29 l0 -108 -50 22 -50 22
0 113 0 113 50 -27 50 -27 0 -108z m-770 -159 c1 -5 1 -53 1 -105 0 -52 0
-101 -1 -108 0 -11 -30 -15 -122 -20 -68 -4 -140 -9 -160 -13 l-38 -7 0 117
c0 133 -11 120 120 135 108 12 200 13 200 1z m270 0 c142 -15 130 -3 130 -136
l0 -115 -67 7 c-38 4 -75 8 -83 10 -8 1 -52 3 -97 3 l-83 1 0 120 0 120 53 0
c28 0 95 -5 147 -10z m-652 -147 l-3 -116 -75 -18 c-41 -10 -76 -18 -77 -19
-2 0 -3 51 -3 114 l0 113 68 21 c100 30 93 38 90 -95z m940 91 l62 -17 0 -113
c0 -63 -3 -114 -7 -113 -5 0 -39 8 -78 18 l-70 17 -3 118 c-2 109 -1 117 15
112 10 -2 46 -12 81 -22z m-1146 -138 c2 -51 2 -100 0 -109 -2 -8 -25 -24 -53
-35 l-49 -21 0 108 0 107 43 21 c23 12 45 22 49 22 4 1 8 -41 10 -93z m1313
72 l45 -22 0 -108 0 -108 -42 17 c-24 9 -47 20 -53 24 -9 7 -9 219 0 219 3 0
25 -10 50 -22z m-725 -406 l0 -119 -112 -6 c-62 -4 -134 -9 -160 -13 l-48 -7
0 116 c0 113 1 117 23 122 31 7 182 22 245 24 l52 1 0 -118z m285 105 l110
-12 3 -119 3 -119 -48 7 c-26 3 -101 9 -165 13 l-118 6 0 119 0 118 53 -1 c28
0 102 -6 162 -12z m-667 -144 l-3 -117 -55 -11 c-30 -7 -65 -15 -77 -19 -23
-7 -23 -7 -23 108 l0 115 58 16 c31 9 62 18 67 20 34 12 36 6 33 -112z m950
91 l52 -15 0 -114 c0 -63 -1 -115 -2 -115 -2 1 -37 9 -78 19 l-75 18 -3 117
-3 117 28 -7 c15 -3 52 -12 81 -20z m-1156 -230 c-3 -25 -10 -33 -40 -44 -21
-7 -43 -15 -50 -18 -10 -3 -12 19 -10 104 l3 109 45 23 45 22 5 -82 c3 -46 3
-97 2 -114z m1358 41 c0 -58 -4 -105 -9 -105 -5 0 -28 9 -52 19 l-44 20 2 88
c1 48 2 98 2 111 l1 22 50 -25 50 -25 0 -105z m-769 -197 c1 -51 -2 -202 -4
-204 -1 -1 -45 -5 -97 -8 -52 -3 -123 -9 -157 -12 l-63 -7 0 116 c0 136 -14
122 145 136 181 15 175 16 176 -21z m304 16 c102 -9 95 0 95 -131 l0 -116 -52
6 c-29 4 -104 10 -165 13 l-113 7 0 120 0 119 88 -6 c48 -4 114 -9 147 -12z
m-685 -139 l0 -115 -27 -6 c-16 -3 -52 -12 -81 -19 l-53 -13 3 116 3 117 65
17 c36 9 71 17 78 17 9 1 12 -28 12 -114z m925 97 l70 -18 3 -116 3 -115 -68
15 c-37 8 -74 16 -80 18 -10 2 -13 35 -13 119 0 63 3 115 8 115 4 0 39 -9 77
-18z m-1133 -120 c5 -128 1 -141 -54 -162 l-48 -18 0 109 0 109 38 19 c58 31
60 29 64 -57z m1331 51 c27 -13 27 -14 27 -122 l0 -109 -45 17 c-24 9 -47 20
-51 24 -5 5 -8 109 -4 205 0 15 25 10 73 -15z m-741 -413 c-2 -63 -5 -116 -5
-117 -1 0 -42 -4 -92 -7 -49 -4 -120 -9 -157 -12 l-68 -6 0 116 0 115 33 6
c46 8 194 20 247 20 l45 0 -3 -115z m273 105 c136 -10 125 1 125 -132 l0 -115
-102 8 c-132 9 -156 11 -195 13 l-33 1 0 119 0 119 63 -4 c34 -2 98 -6 142 -9z
m-657 -142 l-3 -118 -40 -6 c-22 -3 -57 -9 -77 -14 l-38 -7 0 115 0 115 63 15
c106 25 98 34 95 -100z m931 101 l71 -16 0 -114 c0 -126 4 -120 -70 -104 -101
22 -90 6 -90 135 0 63 4 115 9 115 5 0 41 -7 80 -16z m-1136 -146 l-2 -111
-28 -12 c-79 -33 -74 -40 -71 85 l3 112 45 19 c25 10 47 18 50 18 3 1 4 -49 3
-111z m1345 75 c8 -4 12 -36 12 -115 0 -122 6 -116 -75 -83 l-30 12 3 111 3
112 37 -16 c20 -9 43 -18 50 -21z m-758 -417 l0 -114 -62 -6 c-35 -3 -107 -8
-160 -11 l-98 -6 0 115 0 115 33 5 c55 10 99 13 195 14 l92 2 0 -114z m378 98
c21 -6 22 -11 22 -121 l0 -114 -112 6 c-62 4 -129 8 -148 10 -19 2 -43 3 -52
4 -16 1 -18 14 -18 117 l0 117 143 -6 c78 -4 152 -9 165 -13z m-758 -129 c0
-111 -1 -115 -22 -119 -48 -10 -129 -26 -133 -26 -3 0 -5 52 -5 115 0 128 -10
113 85 134 80 18 75 24 75 -104z m931 99 l69 -16 0 -114 c0 -63 -2 -114 -5
-114 -4 0 -85 16 -132 26 -22 4 -23 8 -23 119 0 74 4 115 11 115 5 0 41 -7 80
-16z m-1139 -144 l3 -110 -44 -15 c-25 -8 -48 -15 -53 -15 -4 0 -8 49 -8 109
l0 109 38 15 c61 26 60 27 64 -93z m1315 94 l43 -17 0 -110 c0 -109 0 -109
-22 -103 -13 4 -35 9 -50 12 -16 4 -28 9 -28 13 -6 92 -3 221 5 221 5 0 29 -7
52 -16z m-723 -439 c-1 -64 -3 -117 -5 -119 -2 -2 -75 -6 -161 -9 l-158 -7 0
115 0 114 33 6 c45 7 108 11 207 13 l85 2 -1 -115z m374 99 c21 -6 22 -10 22
-123 l0 -117 -55 6 c-31 3 -58 7 -60 8 -3 1 -52 2 -110 2 l-105 0 0 122 0 121
143 -7 c78 -3 152 -9 165 -12z m-758 -128 l0 -115 -52 -10 c-29 -5 -66 -12
-81 -14 l-28 -4 3 115 3 116 50 12 c28 6 62 12 78 13 l27 1 0 -114z m940 100
l55 -12 3 -118 c2 -109 1 -117 -15 -112 -16 4 -131 26 -140 26 -2 0 -3 52 -3
115 0 132 -6 126 100 101z m-1150 -141 l0 -114 -42 -12 c-24 -6 -46 -13 -50
-16 -5 -2 -8 47 -8 109 l0 114 43 16 c23 9 45 17 50 17 4 1 7 -51 7 -114z
m1360 -31 l0 -113 -46 14 c-25 7 -47 15 -49 17 -6 6 -7 34 -6 130 l1 96 50
-16 50 -16 0 -112z m-768 -321 c-2 -65 -5 -119 -5 -119 -1 -1 -69 -4 -150 -8
-82 -3 -153 -9 -158 -12 -5 -3 -9 46 -9 115 l0 120 43 5 c58 8 118 12 207 14
l75 2 -3 -117z m370 100 l28 -5 0 -116 0 -115 -92 7 c-50 3 -124 6 -165 6
l-73 0 0 121 0 122 137 -7 c75 -4 150 -10 165 -13z m-752 -127 c0 -129 9 -118
-102 -131 l-58 -7 0 115 0 115 53 10 c28 5 64 10 80 11 l27 1 0 -114z m936
102 l64 -11 0 -115 0 -115 -57 7 c-111 13 -103 2 -103 132 0 130 -8 121 96
102z m-1146 -38 c1 -5 1 -46 1 -90 0 -44 0 -91 -1 -104 0 -19 -7 -25 -36 -30
-19 -4 -42 -10 -50 -13 -12 -5 -14 12 -12 107 l3 113 35 13 c44 16 60 17 60 4z
m1335 -10 c25 -9 25 -11 25 -121 0 -111 0 -111 -22 -105 -13 4 -35 9 -50 12
-27 6 -27 7 -30 110 -2 58 -1 109 1 115 3 11 28 7 76 -11z m-745 -342 c2 -58
1 -221 -2 -223 -2 -1 -70 -6 -153 -10 -82 -4 -153 -9 -157 -12 -5 -2 -8 50 -8
116 l0 120 43 5 c23 4 69 8 102 9 151 8 175 7 175 -5z m368 -5 l32 -5 0 -119
0 -118 -27 4 c-44 7 -162 14 -235 15 l-68 0 0 121 0 121 133 -6 c72 -4 147 -9
165 -13z m-748 -127 l0 -114 -32 -5 c-18 -3 -54 -9 -80 -13 l-48 -6 0 115 0
116 43 9 c23 6 59 10 80 11 l37 1 0 -114z m977 98 c22 -6 23 -10 23 -121 l0
-115 -52 7 c-29 3 -65 8 -80 11 l-28 6 0 115 0 116 57 -7 c31 -4 67 -9 80 -12z
m-1186 -26 c0 -7 1 -59 2 -115 l2 -102 -42 -10 c-66 -17 -64 -21 -61 101 l3
111 40 13 c53 16 55 16 56 2z m1307 -3 l52 -16 0 -114 0 -114 -27 9 c-16 4
-39 11 -53 14 -25 5 -25 6 -25 121 0 63 0 115 1 115 0 0 24 -7 52 -15z m-716
-456 c2 -61 1 -115 -2 -119 -3 -5 -77 -12 -165 -16 l-160 -7 3 114 c2 63 5
116 8 118 2 2 52 7 111 10 59 3 129 7 155 9 l47 3 3 -112z m346 95 l52 -5 0
-119 c0 -91 -3 -118 -12 -115 -13 4 -206 14 -280 15 l-38 0 0 120 0 121 113
-6 c61 -3 136 -8 165 -11z m-728 -128 l0 -114 -52 -7 c-29 -3 -66 -8 -81 -11
l-28 -6 3 119 3 118 40 6 c22 3 57 7 78 8 l37 1 0 -114z m992 98 c5 -3 8 -57
8 -120 l0 -116 -27 6 c-16 3 -52 8 -80 11 l-53 7 0 115 0 116 72 -8 c40 -3 76
-9 80 -11z m-1202 -128 l0 -114 -36 -6 c-19 -4 -42 -10 -50 -13 -12 -4 -14 14
-14 111 l0 115 33 10 c69 20 67 23 67 -103z m1321 102 l39 -11 0 -114 c0 -104
-2 -114 -17 -109 -10 2 -32 7 -50 11 l-32 6 -3 111 c-2 60 -1 112 1 114 7 6
21 5 62 -8z m-727 -469 c-1 -61 -3 -112 -5 -114 -3 -2 -75 -7 -162 -12 l-157
-8 -1 85 c0 47 -2 96 -3 108 -5 40 14 47 135 51 63 1 115 4 116 5 1 1 19 0 40
-2 l38 -4 -1 -109z m334 105 l62 -6 0 -116 0 -117 -127 7 c-71 3 -145 6 -165
7 l-38 1 0 114 0 115 28 3 c33 4 156 0 240 -8z m-721 -241 c-2 -2 -33 -6 -68
-9 -35 -3 -70 -7 -76 -9 -10 -3 -13 24 -13 115 l0 119 58 6 c31 3 66 7 77 8
19 2 20 -5 23 -112 1 -62 1 -115 -1 -118z m981 218 c22 -1 22 -3 22 -122 0
-110 -2 -120 -17 -115 -10 2 -46 8 -80 11 l-63 7 0 117 0 117 58 -7 c31 -4 67
-8 80 -8z m-1186 -118 c2 -61 -1 -111 -7 -119 -5 -7 -29 -15 -52 -19 l-43 -7
0 115 0 114 43 10 c23 6 45 11 49 12 4 0 8 -47 10 -106z m1322 91 l36 -6 0
-115 0 -115 -31 6 c-17 3 -40 6 -50 6 -18 0 -19 9 -19 121 0 101 2 120 14 116
8 -3 31 -9 50 -13z m-734 -477 c0 -96 -3 -116 -16 -121 -9 -3 -81 -6 -160 -6
l-144 0 -1 98 c-1 53 -2 104 -3 112 -1 21 35 26 192 29 l132 2 0 -114z m354
107 l46 -7 0 -113 c0 -64 -4 -114 -10 -116 -5 -1 -78 -1 -162 2 l-153 5 -3
118 -3 117 119 0 c66 0 140 -3 166 -6z m-734 -123 l0 -118 -52 -7 c-29 -3 -65
-6 -80 -6 l-28 0 0 115 0 114 33 5 c17 3 46 7 62 8 17 2 38 4 48 5 15 2 17
-10 17 -116z m968 103 l32 -5 0 -114 0 -115 -34 0 c-18 0 -54 3 -80 6 l-46 7
0 118 0 119 48 -6 c26 -3 62 -7 80 -10z m-1177 -96 c1 -46 2 -96 3 -113 1 -31
-18 -42 -77 -44 l-28 -1 3 112 c3 110 3 112 28 119 68 19 70 17 71 -73z m1352
65 c4 -2 7 -55 7 -117 l0 -113 -45 7 c-26 4 -49 11 -53 16 -4 5 -6 58 -4 117
l3 109 42 -7 c23 -4 45 -9 50 -12z m-761 -466 c2 -58 2 -112 0 -120 -3 -13
-25 -16 -140 -19 -202 -4 -182 -17 -182 117 l0 114 28 3 c15 2 86 5 159 6
l132 3 3 -104z m376 95 c21 -4 22 -8 22 -121 l0 -117 -27 2 c-16 1 -90 2 -165
3 l-138 1 0 121 0 120 143 -2 c78 -2 152 -5 165 -7z m-758 -122 l0 -120 -27 0
c-16 0 -52 -3 -81 -7 l-53 -6 3 119 3 119 65 6 c36 3 71 6 78 7 9 2 12 -28 12
-118z m978 104 c21 -4 22 -8 22 -120 l0 -116 -57 5 c-32 4 -68 6 -80 7 -23 0
-23 2 -23 119 l0 120 58 -5 c31 -3 67 -7 80 -10z m-1185 -122 c0 -62 -2 -114
-4 -116 -2 -2 -25 -6 -51 -9 l-48 -7 0 115 c0 111 1 115 23 119 55 12 63 13
71 12 5 -1 9 -52 9 -114z m1335 102 c21 -4 22 -8 22 -119 l0 -115 -47 7 c-27
3 -49 7 -51 8 -3 2 -5 190 -3 221 1 10 21 10 79 -2z m-746 -493 l3 -121 -122
-1 c-68 -1 -141 -2 -163 -3 -22 0 -40 4 -41 9 0 6 -2 58 -2 117 l-2 107 45 3
c25 2 98 4 162 6 l117 3 3 -120z m396 109 c1 0 2 -53 2 -119 l0 -118 -47 3
c-27 2 -101 3 -165 3 l-118 1 0 121 0 122 163 -6 c89 -4 163 -7 165 -7z m-778
-120 l0 -120 -49 0 c-27 0 -63 -3 -80 -6 l-31 -6 0 120 0 121 43 3 c23 2 59 4
80 5 l37 3 0 -120z m968 111 l32 -1 0 -121 0 -122 -37 7 c-21 3 -57 6 -80 6
l-43 0 0 121 0 120 48 -5 c26 -2 62 -5 80 -5z m-1177 -23 c5 -65 -5 -214 -14
-220 -7 -4 -29 -8 -49 -8 l-38 0 0 114 c0 126 -2 122 68 125 19 1 32 -4 33
-11z m1328 6 l31 -6 0 -114 0 -114 -32 1 c-68 1 -69 4 -69 119 0 58 0 108 0
113 1 9 28 9 70 1z m-737 -416 c2 -18 2 -72 0 -120 l-3 -88 -92 0 c-51 -1
-122 -2 -160 -3 l-67 -2 0 117 0 117 38 3 c20 2 92 4 159 6 l122 3 3 -33z
m366 22 l32 0 0 -121 c0 -121 0 -121 -22 -115 -13 3 -87 6 -165 6 l-143 0 0
121 0 121 133 -6 c72 -3 147 -5 165 -6z m-748 -119 l0 -119 -64 -4 c-102 -5
-96 -12 -96 117 l0 114 43 4 c23 2 59 4 80 5 l37 2 0 -119z m993 109 c4 0 7
-52 7 -115 l0 -115 -80 0 -80 0 0 121 0 122 73 -6 c39 -4 75 -7 80 -7z m-1203
-120 l0 -120 -32 -1 c-18 0 -41 -2 -50 -4 -16 -3 -18 8 -18 115 l0 119 43 4
c23 2 45 4 50 5 4 1 7 -52 7 -118z m1333 111 l27 -1 0 -121 c0 -106 -2 -120
-16 -115 -9 3 -31 6 -50 6 l-34 0 0 120 c0 119 0 120 23 116 12 -3 34 -5 50
-5z m-740 -519 c2 -94 0 -112 -13 -112 -8 0 -81 -1 -162 -3 l-148 -3 0 118 0
117 53 3 c28 2 101 1 160 -2 l108 -5 2 -113z m350 118 l47 0 0 -121 0 -122
-46 7 c-26 3 -100 6 -165 6 l-119 0 0 114 c0 133 -13 122 140 119 52 -1 116
-2 143 -3z m-733 -120 l0 -120 -80 0 -80 0 0 114 c0 82 4 116 13 119 6 3 42 6
80 6 l67 1 0 -120z m978 114 c21 -6 22 -11 22 -120 l0 -114 -80 0 -80 0 0 120
0 120 58 0 c31 0 67 -3 80 -6z m-1188 -118 c0 -125 0 -126 -66 -126 l-34 0 0
120 0 120 50 0 50 0 0 -114z m1360 -6 l0 -120 -45 0 c-28 0 -47 5 -50 13 -2 6
-5 60 -7 120 l-3 107 53 0 52 0 0 -120z m-769 -405 c-1 -60 -3 -110 -4 -111
-1 -1 -73 -5 -159 -9 -114 -5 -158 -4 -158 4 -1 6 -1 56 -1 111 0 55 0 104 1
110 0 10 220 18 284 10 l39 -5 -2 -110z m399 -6 l0 -120 -147 5 c-82 3 -156 6
-165 6 -16 0 -18 12 -18 114 l0 115 28 3 c15 2 89 2 165 0 l137 -3 0 -120z
m-988 10 c2 -60 2 -114 0 -119 -2 -6 -26 -10 -53 -10 l-49 0 0 113 c0 63 2
116 4 118 3 2 25 5 50 6 l45 2 3 -110z m208 -9 l0 -120 -80 0 -80 0 0 120 0
120 80 0 80 0 0 -120z m1000 0 l0 -120 -80 0 -80 0 0 120 0 120 80 0 80 0 0
-120z m148 -4 l3 -116 -51 0 c-33 0 -50 4 -51 13 0 11 0 218 1 224 0 2 21 1
48 -1 l47 -3 3 -117z m-1358 -406 c0 -60 0 -113 0 -117 0 -5 -22 -9 -50 -11
l-50 -3 0 120 0 121 50 0 50 0 0 -110z m210 -10 l0 -120 -80 0 -80 0 0 120 0
120 80 0 80 0 0 -120z m383 12 c-1 -59 -2 -113 -2 -119 -1 -10 -40 -13 -161
-13 -121 0 -160 3 -160 13 -1 6 -2 60 -3 120 l-2 107 165 0 165 0 -2 -108z
m397 -12 l0 -120 -165 0 -165 0 0 120 0 120 165 0 165 0 0 -120z m220 0 l0
-120 -80 0 -80 0 0 120 0 120 80 0 80 0 0 -120z m150 0 l0 -120 -55 0 -55 0 0
120 0 120 55 0 55 0 0 -120z"/>
<path d="M5518 8397 l-388 -152 0 -878 c0 -832 1 -878 18 -873 62 20 515 137
517 134 2 -2 5 -39 6 -82 2 -59 -1 -80 -12 -86 -8 -4 -130 -26 -271 -50 l-258
-44 0 -113 c0 -104 2 -114 18 -109 42 13 515 126 518 124 13 -14 6 -168 -8
-172 -13 -4 -170 -28 -410 -63 l-118 -17 0 -113 c0 -113 0 -113 23 -108 67 17
512 114 513 112 1 -1 4 -40 5 -87 l4 -85 -273 -34 -272 -35 0 -114 c0 -103 2
-113 18 -108 9 3 123 25 252 51 129 25 243 47 253 49 15 4 17 -5 17 -83 l0
-87 -97 -11 c-54 -7 -176 -20 -270 -29 l-173 -18 0 -113 c0 -112 0 -113 23
-109 88 19 477 86 500 86 15 0 17 -11 17 -85 0 -74 -2 -85 -17 -85 -10 0 -40
-3 -68 -5 -107 -11 -407 -35 -431 -35 l-24 0 0 -115 c0 -114 0 -115 23 -111
24 5 72 13 325 51 90 14 170 25 178 25 11 0 14 -18 14 -85 l0 -85 -27 -1 c-16
0 -35 -2 -44 -4 -10 -1 -79 -6 -155 -10 -77 -4 -150 -9 -164 -10 -14 -1 -53
-3 -87 -3 l-63 -2 0 -115 0 -114 28 4 c28 6 492 65 505 65 4 0 7 -38 7 -84 l0
-84 -72 -6 c-95 -7 -304 -15 -395 -16 l-73 0 0 -115 c0 -114 0 -115 23 -111
26 6 84 12 237 27 63 5 144 14 180 19 108 16 100 22 100 -75 0 -61 -4 -85 -12
-87 -7 0 -17 -2 -23 -3 -5 -2 -121 -3 -257 -4 l-248 -1 0 -114 0 -115 33 5
c17 2 122 11 232 19 110 8 217 18 238 21 l37 6 0 -91 0 -90 -270 6 -270 6 0
-117 0 -116 38 4 c45 6 173 14 347 22 72 3 136 7 143 9 9 3 12 -18 12 -85 l0
-90 -177 5 c-98 3 -220 7 -270 10 l-93 4 0 -116 0 -115 38 6 c20 3 142 8 270
12 l232 6 0 -87 0 -87 -92 6 c-51 3 -149 8 -218 11 -69 3 -149 8 -177 11 l-53
5 0 -113 0 -113 270 3 270 3 0 -87 0 -87 -87 7 c-49 3 -155 11 -238 16 -82 6
-165 13 -183 15 l-33 5 3 -113 c3 -104 4 -112 23 -113 11 -1 131 -2 268 -3
l247 -1 0 -86 0 -86 -92 7 c-51 3 -104 8 -118 10 -14 2 -79 9 -145 15 -66 5
-135 13 -152 16 l-33 5 0 -114 0 -114 138 -2 c75 -2 162 -4 192 -7 30 -2 90
-3 133 -4 l77 0 0 -88 0 -89 -112 13 c-112 13 -347 42 -401 49 l-28 3 3 -111
c2 -66 7 -112 13 -113 6 0 84 -4 175 -8 91 -5 176 -10 190 -11 14 -2 55 -4 93
-4 l67 -1 0 -91 c0 -81 -2 -90 -17 -85 -10 2 -43 8 -73 11 -92 11 -403 55
-427 60 -23 5 -23 4 -23 -104 0 -128 -12 -116 135 -126 55 -4 168 -12 250 -18
l150 -12 3 -88 3 -89 -28 6 c-15 3 -89 15 -163 26 -139 22 -288 47 -327 56
l-23 4 0 -307 0 -308 378 -68 c207 -38 385 -71 395 -73 16 -5 17 195 17 4090
0 2253 -3 4096 -7 4096 -5 0 -182 -69 -395 -153z"/>
<path d="M7651 4460 c0 -2249 3 -4091 7 -4093 4 -3 183 27 397 67 l390 71 3
308 2 307 -22 -5 c-13 -3 -122 -21 -243 -40 -121 -19 -233 -38 -248 -41 l-28
-6 3 89 3 88 80 6 c44 4 123 10 175 14 52 3 136 10 185 13 l90 7 3 113 3 114
-28 -6 c-15 -3 -127 -19 -248 -36 -121 -17 -230 -33 -242 -36 -23 -4 -23 -2
-23 86 l0 90 63 1 c34 0 76 2 92 3 17 2 107 7 200 11 94 4 173 9 178 12 4 2 7
53 7 114 l0 109 -37 -5 c-21 -3 -143 -18 -270 -34 l-233 -27 0 88 0 88 53 0
c28 0 126 3 217 6 91 3 188 7 215 7 l50 2 3 111 3 111 -48 -4 c-26 -2 -136
-13 -243 -24 -107 -10 -207 -19 -222 -19 l-28 0 0 85 0 85 255 1 c140 1 261 2
268 3 9 1 13 33 15 114 l3 114 -38 -6 c-21 -3 -81 -8 -133 -11 -52 -4 -147
-11 -210 -16 -179 -14 -160 -23 -160 77 l0 85 258 -1 c141 -1 263 -1 270 -1 9
1 12 30 12 111 l0 109 -47 -4 c-27 -2 -109 -7 -183 -10 -74 -3 -175 -8 -223
-12 l-88 -6 3 88 3 88 107 -2 c59 -1 116 -4 126 -6 10 -2 81 -5 158 -6 l139
-3 3 112 3 112 -108 -5 c-59 -3 -181 -7 -270 -10 l-161 -5 -4 81 c-3 87 -1 97
22 94 8 -1 80 -6 160 -10 80 -4 157 -8 172 -10 16 -2 63 -5 105 -6 l78 -4 3
114 3 114 -271 -6 c-170 -4 -270 -3 -270 3 -3 43 -1 162 2 164 1 2 120 -6 263
-19 143 -12 263 -20 268 -18 10 6 9 211 -1 217 -5 3 -126 6 -270 7 -144 1
-262 4 -262 8 -1 3 -2 43 -3 89 l-2 82 55 -6 c291 -32 476 -50 483 -47 4 2 7
51 7 108 0 57 -3 106 -7 108 -5 3 -98 8 -208 11 -248 8 -325 15 -326 30 -2 27
3 151 6 154 2 3 76 -6 200 -23 17 -2 86 -11 155 -19 69 -9 137 -18 153 -21
l27 -4 0 110 c0 79 -3 111 -12 114 -7 2 -62 6 -123 10 -260 14 -397 23 -401
28 -6 6 -7 158 -1 163 5 5 451 -57 515 -71 l23 -6 -3 113 -3 113 -185 17
c-102 9 -223 19 -270 23 l-85 7 2 86 c2 65 5 86 15 85 7 -1 105 -18 218 -37
113 -20 221 -38 240 -41 19 -4 43 -8 53 -11 15 -5 17 5 17 106 0 79 -4 112
-12 115 -7 3 -101 14 -208 24 -107 11 -223 23 -257 27 l-61 7 -4 66 c-6 121
-33 114 250 59 136 -26 257 -50 270 -53 22 -5 22 -4 22 105 0 79 -4 112 -12
115 -12 4 -102 16 -435 57 -51 7 -93 16 -94 22 0 6 -1 45 -1 86 1 67 3 75 19
73 20 -2 477 -101 506 -109 15 -5 17 5 17 106 0 79 -4 112 -12 115 -7 3 -121
21 -253 40 -132 19 -250 38 -262 40 -22 5 -23 10 -23 90 0 47 2 85 5 85 9 0
494 -116 528 -126 15 -5 17 5 17 105 0 60 -3 112 -7 114 -5 3 -118 24 -253 46
-135 23 -255 44 -267 47 -22 4 -23 9 -23 89 0 56 4 85 11 85 10 0 468 -120
521 -136 16 -5 17 49 15 873 l-2 878 -205 81 c-411 163 -570 224 -579 224 -5
0 -9 -1724 -10 -4090z"/>
<path d="M3920 7621 c-19 -10 -160 -71 -313 -137 l-277 -119 2 -3225 3 -3225
315 -112 c173 -62 318 -112 323 -112 4 -1 7 1563 7 3474 0 2774 -3 3475 -12
3475 -7 -1 -29 -9 -48 -19z m-70 -459 l0 -88 -177 -56 c-98 -31 -180 -54 -182
-52 -5 4 -1 157 4 162 6 6 330 121 343 122 9 0 12 -24 12 -88z m0 -672 c0 -85
-1 -90 -22 -95 -13 -3 -93 -23 -178 -43 l-155 -38 -5 76 c-3 41 -3 78 0 82 6
8 321 104 348 107 9 1 12 -23 12 -89z m0 -672 l0 -93 -175 -29 c-97 -16 -178
-26 -181 -23 -7 6 -9 146 -2 152 3 3 83 23 179 44 96 22 175 40 177 40 1 1 2
-41 2 -91z m0 -678 c0 -65 -3 -90 -12 -90 -7 0 -80 -7 -163 -15 -82 -8 -158
-15 -167 -15 -16 0 -18 10 -18 79 l0 79 153 25 c83 13 164 25 180 26 l27 1 0
-90z m0 -670 c0 -65 -3 -90 -12 -90 -7 0 -88 -3 -180 -6 l-168 -6 -1 36 c-1
20 -2 54 -3 77 0 22 1 42 5 44 3 2 36 7 75 10 38 4 107 10 154 14 47 5 95 9
108 10 21 1 22 -2 22 -89z m-2 -675 c-3 -89 -3 -90 -28 -89 -106 4 -325 16
-327 17 -2 3 -5 96 -4 129 l1 27 133 3 c72 2 154 3 180 3 l48 0 -3 -90z m-78
-580 c30 -2 61 -4 68 -4 9 -1 12 -26 12 -92 l0 -92 -32 6 c-18 2 -99 13 -180
23 l-148 18 0 78 0 78 113 -6 c61 -3 137 -7 167 -9z m-88 -660 c75 -8 144 -15
153 -15 12 0 15 -15 15 -91 l0 -90 -42 6 c-24 4 -104 19 -178 33 l-135 27 -3
77 -3 78 28 -5 c15 -3 90 -12 165 -20z m161 -695 c4 -4 7 -45 5 -92 l-3 -85
-175 47 -175 47 -3 75 -3 75 173 -30 c95 -16 177 -33 181 -37z m5 -670 c4 0 2
-180 -2 -180 -3 0 -83 27 -178 60 -95 33 -174 60 -175 60 -2 0 -3 33 -3 74 l0
73 178 -43 c97 -24 178 -43 180 -44z"/>
<path d="M9600 4164 c0 -2855 2 -3475 13 -3472 7 2 153 53 325 113 l312 110 0
3226 0 3225 -317 137 c-175 75 -321 137 -325 137 -5 0 -8 -1564 -8 -3476z
m323 3025 l177 -62 0 -85 c0 -63 -3 -83 -12 -80 -7 3 -91 29 -185 58 l-173 54
0 88 c0 48 3 88 8 88 4 0 87 -27 185 -61z m10 -664 l167 -49 0 -83 c0 -76 -2
-84 -17 -79 -18 5 -274 68 -325 80 l-28 6 0 91 c0 82 2 91 18 87 9 -3 92 -27
185 -53z m-5 -660 l172 -38 0 -79 c0 -93 21 -88 -205 -50 l-160 27 -3 94 c-2
73 0 92 10 89 7 -3 91 -22 186 -43z m5 -661 l167 -27 0 -80 0 -80 -62 6 c-35
4 -99 10 -143 13 -44 4 -87 8 -95 10 -8 1 -27 3 -42 3 l-28 1 0 90 c0 79 2 90
18 90 9 0 92 -12 185 -26z m30 -665 l137 -12 0 -80 0 -80 -162 6 c-90 4 -173
7 -185 7 -22 0 -23 3 -23 91 l0 91 48 -6 c26 -3 109 -11 185 -17z m20 -659
l117 0 0 -78 0 -79 -122 -6 c-66 -4 -150 -7 -185 -7 l-63 0 0 88 0 87 67 -2
c38 -1 121 -2 186 -3z m117 -725 c0 -51 -4 -77 -12 -80 -7 -3 -73 -11 -146
-20 -73 -8 -150 -18 -172 -21 l-40 -7 0 91 0 90 83 6 c45 4 105 7 132 9 28 1
74 3 103 5 l52 2 0 -75z m-2 -652 l-3 -76 -165 -33 c-91 -18 -173 -33 -182
-33 -16 -1 -18 10 -18 89 0 65 3 90 13 90 16 1 96 9 227 25 58 7 111 13 118
14 10 1 12 -18 10 -76z m2 -647 c0 -62 -3 -75 -17 -80 -10 -3 -88 -23 -173
-46 -85 -22 -161 -43 -168 -45 -10 -4 -12 16 -10 87 l3 92 175 32 c96 18 178
32 183 33 4 1 7 -32 7 -73z m0 -650 l0 -73 -172 -58 c-95 -32 -179 -60 -185
-63 -10 -3 -13 18 -13 87 l0 92 28 5 c15 3 95 23 177 44 83 21 153 38 158 39
4 1 7 -32 7 -73z"/>
<path d="M4030 4133 l0 -3466 53 6 c28 3 120 15 202 26 83 12 151 21 153 21 1
0 2 1260 2 2799 l0 2799 153 60 152 60 0 362 0 362 -215 132 c-118 72 -279
171 -357 218 l-143 87 0 -3466z m250 2966 l90 -42 0 -88 c0 -49 -1 -89 -3 -89
-2 0 -46 17 -98 38 l-94 38 -3 92 c-2 56 1 92 7 92 6 0 51 -19 101 -41z m300
-154 l70 -35 0 -70 0 -69 -72 32 -73 33 -3 72 c-2 40 0 72 3 72 3 0 37 -16 75
-35z m-309 -194 l94 -39 3 -90 3 -91 -83 28 c-46 16 -91 32 -100 36 -15 6 -18
21 -18 101 0 52 2 94 4 94 2 0 46 -18 97 -39z m312 -146 l67 -29 0 -69 c0 -62
-2 -68 -17 -63 -10 4 -44 17 -75 29 l-58 22 0 73 c0 41 4 72 8 70 4 -1 38 -16
75 -33z m-303 -208 l85 -33 3 -91 3 -91 -91 28 c-49 16 -94 31 -100 35 -15 9
-13 185 3 184 6 0 50 -15 97 -32z m3 -353 l87 -28 0 -89 0 -89 -32 6 c-17 3
-62 15 -100 27 l-68 20 0 95 c0 73 3 95 13 91 6 -2 51 -17 100 -33z m-1 -351
l88 -26 0 -90 c0 -87 0 -89 -22 -84 -13 3 -58 13 -100 23 l-78 18 0 93 c0 64
4 93 12 93 6 0 51 -12 100 -27z m-37 -342 c22 -5 59 -15 83 -21 l42 -11 0 -89
c0 -50 -2 -90 -4 -90 -5 0 -139 27 -173 35 -22 5 -23 10 -23 101 0 86 2 95 18
90 9 -3 35 -9 57 -15z m5 -352 c25 -5 62 -14 83 -20 l37 -10 0 -90 c0 -81 -2
-90 -17 -85 -10 3 -55 10 -100 17 l-83 11 0 94 c0 105 -3 102 80 83z m45 -362
l70 -12 3 -89 3 -89 -83 7 c-126 11 -118 3 -118 111 l0 95 28 -6 c15 -2 59
-10 97 -17z m15 -352 c8 -2 25 -4 38 -4 21 -1 22 -5 22 -91 l0 -90 -32 0 c-18
0 -63 3 -100 7 l-68 6 0 94 0 95 63 -7 c34 -4 69 -9 77 -10z m-12 -350 l72 -7
0 -89 0 -89 -84 0 c-46 0 -91 3 -100 6 -13 5 -16 24 -16 101 l0 95 28 -6 c15
-3 60 -8 100 -11z m11 -351 l61 -7 0 -88 0 -89 -100 0 -100 0 0 95 0 95 39 0
c21 0 66 -3 100 -6z m44 -354 c15 0 17 -11 17 -90 l0 -90 -77 0 c-43 0 -88 -3
-100 -6 -23 -6 -23 -5 -23 94 l0 101 83 -4 c45 -3 90 -5 100 -5z m17 -430 c0
-102 8 -95 -117 -105 l-83 -7 0 96 0 95 73 3 c39 2 84 4 100 4 l27 2 0 -88z
m0 -349 l0 -89 -27 -6 c-16 -3 -53 -8 -83 -11 -30 -4 -63 -9 -73 -12 -16 -4
-18 3 -15 94 l3 98 70 6 c39 3 82 6 98 7 l27 2 0 -89z m0 -351 c0 -49 -2 -90
-4 -90 -2 0 -40 -7 -83 -15 -122 -23 -113 -30 -113 80 0 52 1 95 3 95 61 5
143 13 146 16 2 2 15 4 28 4 22 0 23 -2 23 -90z m0 -349 l0 -88 -82 -17 c-46
-10 -91 -20 -101 -23 -16 -4 -18 3 -15 94 l3 98 70 11 c39 6 82 12 98 13 l27
1 0 -89z m-2 -348 l-3 -87 -80 -22 c-123 -34 -115 -39 -115 70 l0 94 73 15
c39 8 85 15 100 16 l28 1 -3 -87z m-5 -433 c-4 -4 -44 -17 -88 -30 -44 -12
-86 -25 -93 -28 -10 -3 -12 17 -10 94 l3 98 95 21 95 22 3 -85 c2 -47 -1 -88
-5 -92z"/>
<path d="M9188 7377 l-357 -218 -1 -358 -1 -359 156 -62 155 -62 0 -2798 0
-2797 28 -6 c67 -13 373 -49 377 -45 3 3 4 1561 3 3464 l-3 3460 -357 -219z
m220 -329 l-3 -93 -90 -37 c-49 -21 -93 -37 -97 -38 -5 0 -8 40 -8 88 l0 88
88 41 c48 23 93 42 100 42 10 1 12 -21 10 -91z m-330 -140 l-3 -72 -72 -33
-73 -32 0 69 0 70 68 34 c37 19 71 35 75 36 4 0 7 -32 5 -72z m330 -214 l-3
-97 -95 -33 c-52 -18 -96 -33 -97 -34 -2 0 -3 40 -3 89 l0 89 93 40 c50 22 96
41 100 41 4 1 6 -42 5 -95z m-328 -126 l0 -73 -68 -27 c-38 -16 -71 -28 -76
-28 -4 0 -6 30 -4 67 l3 67 65 33 c36 17 68 32 73 32 4 1 7 -32 7 -71z m330
-231 l0 -94 -100 -30 -101 -31 3 91 3 90 85 33 c47 18 91 33 98 34 9 0 12 -25
12 -93z m-2 -354 l-3 -96 -85 -23 c-47 -13 -91 -24 -97 -24 -10 0 -13 24 -13
88 l0 88 93 31 c50 17 96 32 100 32 4 1 6 -42 5 -96z m2 -356 l0 -93 -77 -18
c-43 -10 -88 -20 -100 -23 -23 -5 -23 -3 -23 84 l0 90 83 25 c125 39 117 43
117 -65z m-2 -354 l-3 -97 -90 -17 c-49 -10 -93 -18 -97 -18 -5 -1 -8 39 -8
89 l0 89 38 10 c20 5 62 16 92 25 30 8 59 15 63 15 4 1 6 -43 5 -96z m2 -357
l0 -94 -82 -12 c-46 -6 -91 -14 -101 -17 -16 -4 -18 3 -15 88 l3 93 75 17
c129 28 120 34 120 -75z m0 -350 c0 -52 -3 -97 -7 -99 -5 -3 -50 -8 -101 -12
l-93 -7 3 88 3 88 90 17 c50 9 93 17 98 18 4 1 7 -41 7 -93z m0 -360 l0 -93
-67 -6 c-38 -4 -83 -7 -100 -7 l-33 0 0 89 0 89 73 10 c39 5 84 10 100 11 l27
1 0 -94z m0 -350 c0 -76 -3 -95 -16 -100 -9 -3 -54 -6 -100 -6 l-84 0 0 89 0
89 78 7 c42 3 84 8 92 9 8 2 18 4 23 5 4 0 7 -41 7 -93z m0 -361 l0 -95 -100
0 -100 0 0 89 0 90 43 4 c23 2 68 4 100 5 l57 2 0 -95z m0 -356 l0 -97 -32 3
c-18 2 -63 4 -100 4 l-68 1 0 93 0 92 100 1 100 0 0 -97z m-42 -258 l42 -1 0
-96 0 -96 -72 7 c-40 3 -85 8 -100 11 l-28 6 0 87 0 88 58 -3 c31 -1 76 -3
100 -3z m30 -356 c8 -3 12 -32 12 -99 l0 -95 -27 4 c-45 8 -157 25 -165 25 -5
0 -8 40 -8 90 l0 90 88 -6 c48 -3 93 -7 100 -9z m-76 -346 l88 -12 0 -93 c0
-69 -3 -94 -12 -94 -7 0 -52 7 -100 16 l-88 16 0 89 c0 62 4 89 12 89 6 0 51
-5 100 -11z m8 -353 l75 -12 3 -98 c2 -82 0 -98 -12 -93 -7 3 -53 13 -100 23
l-86 17 0 88 c0 103 -10 96 120 75z m80 -462 c0 -69 -3 -94 -12 -94 -7 0 -51
11 -98 24 l-85 23 -3 90 -3 90 101 -20 100 -20 0 -93z m-100 -238 l95 -23 3
-98 c2 -76 0 -96 -10 -93 -7 3 -52 17 -100 32 l-88 27 0 89 c0 50 1 90 3 90 1
-1 45 -11 97 -24z"/>
<path d="M4905 6454 c-99 -41 -240 -100 -312 -130 l-133 -56 0 -2785 0 -2784
33 -13 c61 -25 586 -180 592 -175 3 3 4 1358 3 3012 l-3 3005 -180 -74z m95
-361 l0 -78 -163 -58 c-89 -32 -190 -69 -225 -82 l-63 -24 3 72 3 71 220 87
c121 48 221 88 223 88 1 1 2 -34 2 -76z m0 -401 l0 -78 -218 -67 c-120 -37
-221 -67 -225 -67 -4 0 -7 30 -7 68 l0 67 223 77 c122 42 223 77 225 77 1 1 2
-34 2 -77z m0 -401 l0 -79 -202 -51 c-112 -28 -213 -54 -225 -57 -22 -6 -23
-4 -23 63 l0 69 223 66 c122 36 223 66 225 67 1 0 2 -34 2 -78z m0 -406 c0
-41 -4 -75 -8 -75 -12 0 -403 -79 -424 -86 -16 -5 -18 3 -18 64 l0 70 158 37
c86 20 180 43 207 50 87 23 85 25 85 -60z m0 -400 l0 -74 -32 -5 c-18 -3 -114
-17 -213 -31 -99 -14 -186 -28 -192 -30 -10 -3 -13 14 -13 65 0 64 2 70 23 74
78 18 386 74 405 75 21 1 22 -3 22 -74z m0 -400 c0 -41 -3 -75 -7 -75 -5 0
-100 -9 -213 -20 -113 -11 -211 -20 -217 -20 -9 0 -13 20 -13 65 0 36 1 65 3
66 10 2 407 57 425 58 21 1 22 -3 22 -74z m0 -400 l0 -75 -32 -1 c-18 0 -58
-2 -88 -4 -30 -2 -117 -6 -192 -9 l-138 -6 0 65 0 64 33 5 c17 3 91 10 162 16
72 6 146 12 165 14 19 1 47 4 63 4 l27 2 0 -75z m0 -399 l0 -76 -225 0 -225 0
0 70 0 69 138 3 c75 2 176 4 225 6 l87 3 0 -75z m-132 -326 l132 0 0 -76 0
-76 -127 7 c-71 4 -130 9 -133 10 -3 2 -39 5 -80 6 -113 3 -110 1 -110 74 l0
63 93 -4 c50 -2 152 -4 225 -4z m-128 -385 c30 -2 101 -7 158 -11 l102 -7 0
-73 c0 -89 25 -84 -242 -49 -105 14 -195 25 -200 25 -4 0 -8 29 -8 65 l0 65
68 -5 c37 -3 92 -7 122 -10z m15 -390 c72 -9 156 -18 188 -22 l57 -6 0 -77 0
-77 -132 23 c-73 14 -175 32 -225 41 l-93 17 0 64 0 64 38 -6 c20 -4 96 -13
167 -21z m19 -391 c116 -20 215 -39 219 -44 4 -4 7 -38 5 -77 l-3 -70 -220 52
-220 51 -3 62 c-2 34 0 62 4 62 4 0 102 -16 218 -36z m11 -392 l210 -47 3 -79
c2 -61 0 -77 -10 -74 -7 3 -78 24 -158 47 -80 23 -175 51 -212 62 l-68 20 0
59 c0 42 4 60 13 60 6 -1 107 -22 222 -48z m0 -391 l210 -58 3 -78 c3 -71 1
-77 -15 -71 -10 4 -111 39 -225 78 l-208 70 0 59 c0 41 4 59 13 59 6 0 107
-27 222 -59z"/>
<path d="M8490 3517 l0 -3015 108 32 c59 18 200 61 315 96 l207 63 -2 2790 -3
2789 -55 23 c-63 25 -538 224 -557 232 -10 4 -13 -602 -13 -3010z m350 2550
l185 -72 3 -72 3 -71 -223 82 -223 82 -3 77 -3 77 38 -15 c21 -8 121 -48 223
-88z m-19 -381 l213 -73 0 -67 c1 -36 -1 -66 -4 -66 -3 -1 -105 30 -227 67
l-223 68 0 73 c0 54 3 72 14 72 7 0 109 -33 227 -74z m-7 -387 c116 -33 213
-63 215 -65 5 -5 4 -124 -1 -130 -3 -2 -104 22 -226 53 l-222 57 0 73 c0 49 4
73 12 73 6 0 106 -27 222 -61z m4 -390 l212 -51 0 -68 c0 -60 -2 -68 -17 -64
-39 9 -419 84 -425 84 -5 0 -8 34 -8 75 0 53 4 75 13 75 6 0 108 -23 225 -51z
m-55 -379 c89 -17 186 -35 215 -41 l52 -10 0 -69 c0 -51 -3 -68 -12 -65 -12 4
-413 65 -430 65 -5 0 -8 34 -8 75 0 47 4 75 11 75 6 0 83 -14 172 -30z m-13
-390 c116 -17 134 -19 195 -26 87 -10 91 -13 89 -80 0 -32 -6 -60 -12 -62 -6
-2 -104 6 -218 17 -114 12 -211 21 -216 21 -4 0 -8 34 -8 76 l0 76 53 -6 c28
-4 81 -11 117 -16z m30 -395 c25 -2 77 -7 115 -10 39 -3 86 -8 105 -11 l35 -5
-3 -65 -4 -65 -111 6 c-62 3 -163 8 -224 11 l-113 6 0 75 0 75 78 -6 c42 -4
97 -9 122 -11z m238 -400 c8 -3 12 -26 12 -70 l0 -65 -225 0 -225 0 0 75 0 75
213 -6 c116 -3 218 -7 225 -9z m13 -393 c2 -33 -3 -107 -7 -111 -4 -4 -131
-15 -331 -27 l-113 -7 0 76 0 76 138 3 c331 7 312 8 313 -10z m2 -426 c-1 -32
-4 -60 -6 -62 -4 -5 -391 -54 -424 -54 -22 0 -23 4 -23 75 l0 75 28 0 c37 1
191 11 282 19 41 4 91 7 110 6 l35 0 -2 -59z m-3 -379 l0 -64 -127 -22 c-71
-12 -172 -31 -225 -40 l-98 -18 0 77 0 78 73 7 c39 4 81 9 92 11 11 2 49 6 85
10 36 3 85 10 110 14 93 16 90 18 90 -53z m2 -377 c2 -47 0 -61 -12 -65 -8 -2
-103 -25 -210 -50 -107 -25 -203 -48 -213 -51 -16 -5 -18 1 -15 72 l3 79 45 7
c25 5 117 21 205 37 88 16 167 29 177 30 13 1 17 -11 20 -59z m-2 -380 l0 -59
-82 -25 c-46 -14 -141 -42 -213 -62 -71 -20 -136 -39 -143 -42 -10 -3 -12 13
-10 73 l3 78 205 48 c113 26 213 47 223 48 14 1 17 -8 17 -59z m0 -379 l0 -58
-212 -73 c-117 -40 -219 -75 -226 -78 -10 -3 -12 13 -10 73 l3 78 205 57 c113
32 213 58 223 59 14 1 17 -8 17 -58z"/>
<path d="M2870 5579 c0 -221 3 -280 13 -276 93 37 275 123 269 128 -4 3 -49
19 -99 34 l-93 28 0 60 c0 52 2 58 18 52 9 -3 63 -22 120 -42 l102 -35 0 -40
c0 -36 2 -39 23 -32 12 3 35 13 50 21 l28 14 -3 96 -3 97 -200 88 c-110 48
-206 87 -212 88 -10 0 -13 -63 -13 -281z"/>
<path d="M2600 5711 l-225 -138 0 -2148 0 -2148 458 -167 457 -168 0 2255 c0
1302 -4 2252 -9 2249 -5 -3 -184 -78 -397 -167 -214 -88 -404 -167 -421 -174
l-33 -14 0 48 c0 46 1 48 45 69 25 12 48 22 50 22 3 0 5 -18 5 -40 0 -45 5
-47 54 -24 32 16 34 20 33 62 l-2 45 63 28 62 28 0 -44 c0 -25 2 -45 4 -45 2
0 24 9 50 20 l46 21 0 284 c0 157 -3 285 -7 285 -5 0 -109 -63 -233 -139z
m133 -271 c-4 -4 -31 -16 -60 -27 l-51 -21 -4 54 -3 55 60 33 60 33 3 -60 c2
-33 -1 -63 -5 -67z m-203 -38 l0 -48 -51 -21 -50 -22 3 47 c3 43 6 48 43 69
22 13 43 23 48 23 4 0 7 -22 7 -48z m563 -362 c-4 -4 -36 -17 -70 -28 l-63
-21 0 62 0 62 68 26 67 26 3 -60 c2 -33 -1 -63 -5 -67z m-233 -25 c0 -59 1
-58 -66 -79 -26 -8 -34 14 -25 68 5 30 13 41 36 51 51 23 55 20 55 -40z m-180
-65 c0 -45 -3 -52 -26 -60 -41 -16 -44 -13 -44 38 0 41 4 51 23 60 41 20 47
15 47 -38z m-140 -48 c0 -43 -3 -50 -25 -60 -36 -17 -35 -17 -35 37 0 50 2 53
58 70 1 1 2 -21 2 -47z m560 -26 l0 -65 -55 -15 c-30 -9 -61 -19 -70 -22 -14
-6 -16 2 -13 57 l3 64 60 22 c33 12 63 22 68 22 4 1 7 -28 7 -63z m-248 -43
c2 -10 1 -35 -1 -56 -3 -39 -7 -42 -69 -62 -22 -6 -23 -5 -20 51 3 55 4 58 38
70 47 17 48 17 52 -3z m-172 -96 c0 -53 -1 -54 -35 -64 l-35 -11 0 52 c0 48 2
53 28 63 42 17 42 16 42 -40z m-142 -49 c-3 -47 -6 -52 -30 -59 -28 -7 -28 -7
-28 40 0 40 4 50 23 59 36 17 38 15 35 -40z m562 -36 l0 -68 -64 -17 c-35 -9
-67 -17 -70 -17 -3 0 -6 26 -6 59 l0 58 68 26 c37 14 68 26 70 26 1 1 2 -30 2
-67z m-250 -76 c0 -61 0 -61 -53 -71 l-37 -7 0 51 c0 49 2 53 33 66 53 23 57
20 57 -39z m-170 -55 c0 -53 -1 -55 -42 -65 -28 -6 -28 -6 -28 44 0 43 3 52
23 60 42 17 47 12 47 -39z m-144 -87 c-3 -8 -17 -14 -31 -14 -23 0 -25 4 -25
44 0 39 3 45 28 54 26 9 27 8 30 -31 2 -21 1 -46 -2 -53z m564 -9 l0 -64 -38
-10 c-21 -6 -52 -14 -70 -17 l-32 -6 0 59 0 59 63 21 c34 12 65 22 70 22 4 1
7 -28 7 -64z m-246 -67 c-4 -60 -7 -64 -56 -73 l-38 -7 0 56 c0 54 1 56 33 65
61 18 63 16 61 -41z m-174 -53 c0 -37 -4 -55 -12 -55 -7 0 -23 -3 -36 -6 -22
-6 -23 -5 -20 47 3 53 10 61 61 68 4 1 7 -24 7 -54z m-144 -81 c-3 -8 -17 -14
-31 -14 -25 0 -26 2 -23 47 3 41 6 48 28 53 23 6 25 3 28 -33 2 -22 1 -46 -2
-53z m564 -28 l0 -64 -52 -12 c-29 -6 -61 -14 -71 -17 -16 -4 -18 2 -15 58 l3
63 55 17 c83 26 80 27 80 -45z m-249 -18 c3 -32 -2 -93 -9 -99 -4 -4 -24 -10
-44 -13 l-38 -7 0 55 c0 50 2 55 28 64 38 14 62 14 63 0z m-171 -87 c0 -51 -9
-61 -51 -61 -16 0 -19 7 -19 49 0 51 6 59 48 60 20 1 22 -4 22 -48z m-144 -77
c-3 -8 -17 -14 -31 -14 -25 0 -26 2 -23 47 3 41 6 48 28 53 23 6 25 3 28 -33
2 -22 1 -46 -2 -53z m564 -48 l0 -63 -37 -6 c-21 -4 -53 -9 -70 -13 l-33 -6 0
60 0 61 43 11 c23 6 47 13 52 15 39 14 45 6 45 -59z m-248 -66 c-4 -35 -7 -39
-44 -48 -46 -12 -51 -6 -46 59 3 41 5 44 43 55 36 10 40 9 45 -9 3 -11 4 -36
2 -57z m-172 -19 c0 -53 -1 -55 -42 -65 -28 -6 -28 -6 -28 48 0 49 2 55 23 59
46 9 47 8 47 -42z m-144 -77 c-3 -8 -17 -14 -31 -14 -25 0 -26 2 -23 47 3 41
6 48 28 53 23 6 25 3 28 -33 2 -22 1 -46 -2 -53z m564 -58 c0 -72 0 -72 -86
-82 l-54 -7 0 61 0 60 63 15 c34 8 65 15 70 16 4 0 7 -28 7 -63z m-254 -103
c-2 -3 -23 -7 -45 -10 l-41 -6 0 55 0 55 43 9 42 9 3 -54 c2 -29 1 -55 -2 -58z
m-166 22 c0 -37 -4 -55 -12 -55 -7 0 -23 -3 -36 -6 -22 -6 -23 -5 -20 47 3 53
10 61 61 68 4 1 7 -24 7 -54z m-144 -71 c-3 -8 -15 -14 -26 -14 -17 0 -20 6
-20 49 0 44 3 50 23 53 19 3 22 -2 25 -36 2 -21 1 -45 -2 -52z m566 -78 l-4
-65 -46 -6 c-26 -3 -57 -8 -69 -11 -22 -4 -23 -1 -23 60 l0 64 58 10 c94 16
87 20 84 -52z m-250 -36 c0 -28 -2 -53 -4 -55 -1 -1 -22 -6 -45 -10 l-43 -7 0
56 c0 50 2 56 23 60 40 9 62 12 65 10 2 -1 3 -25 4 -54z m-174 -32 c-3 -52 -4
-53 -35 -56 l-33 -3 0 50 c0 51 6 59 48 60 22 1 23 -2 20 -51z m-142 -64 c-3
-8 -15 -14 -26 -14 -17 0 -20 6 -20 49 0 44 3 50 23 53 19 3 22 -2 25 -36 2
-21 1 -45 -2 -52z m565 -99 c-1 -33 -3 -61 -4 -61 -1 -1 -32 -4 -69 -8 l-68
-7 0 61 c0 54 2 60 23 64 12 3 31 7 42 10 11 2 33 3 49 3 l30 -2 -3 -60z
m-249 18 c2 -9 1 -36 -1 -60 -3 -40 -5 -43 -31 -43 -16 0 -36 -3 -45 -6 -14
-6 -16 1 -13 52 3 59 3 59 38 65 19 4 38 7 42 8 3 0 8 -6 10 -16z m-172 -68
l0 -55 -35 0 -35 0 0 49 c0 43 3 50 23 54 47 9 47 9 47 -48z m-144 -61 c-3 -8
-15 -14 -26 -14 -17 0 -20 6 -20 49 0 44 3 50 23 53 19 3 22 -2 25 -36 2 -21
1 -45 -2 -52z m562 -111 l-3 -68 -67 -3 -68 -4 0 60 0 60 63 10 c34 5 66 10
70 11 4 0 7 -29 5 -66z m-248 -23 l0 -60 -45 0 -45 0 0 54 c0 54 0 55 33 59
17 2 38 5 45 5 8 2 12 -16 12 -58z m-170 -20 c0 -33 -4 -50 -12 -50 -7 0 -23
-3 -35 -6 -22 -6 -23 -4 -23 50 l0 56 35 0 35 0 0 -50z m-142 -17 c-3 -41 -6
-48 -25 -51 -21 -3 -23 0 -23 47 0 48 2 51 26 51 24 0 25 -2 22 -47z m563
-115 c2 -41 1 -110 -3 -113 -2 -2 -34 -6 -71 -7 l-67 -3 0 62 0 62 48 4 c26 2
57 4 70 5 12 1 22 -4 23 -10z m-251 -68 l0 -60 -45 0 -45 0 0 54 c0 52 1 55
28 59 64 10 62 12 62 -53z m-170 -15 l0 -55 -35 0 -35 0 0 49 c0 51 6 59 48
60 20 1 22 -3 22 -54z m-140 -9 c0 -31 -5 -46 -16 -50 -30 -11 -34 -6 -34 44
0 47 2 50 25 50 23 0 25 -4 25 -44z m562 -142 c2 -9 1 -39 0 -65 l-4 -49 -69
0 -69 0 0 59 c0 67 1 68 87 70 40 1 52 -3 55 -15z m-252 -54 l0 -60 -45 0 -45
0 0 54 c0 58 4 62 63 65 27 1 27 0 27 -59z m-170 -5 l0 -55 -35 0 -35 0 0 49
c0 49 1 50 33 54 17 2 33 5 35 5 1 1 2 -23 2 -53z m-140 -9 c0 -39 -3 -44 -25
-48 -24 -5 -25 -3 -25 43 0 46 2 49 25 49 23 0 25 -4 25 -44z m560 -201 l0
-65 -70 0 -70 0 0 60 0 59 68 4 c37 2 68 4 70 5 1 1 2 -27 2 -63z m-250 -5 c0
-65 -1 -65 -59 -54 -30 6 -31 8 -31 60 l0 54 45 0 45 0 0 -60z m-170 0 l0 -50
-35 0 -35 0 0 50 0 50 35 0 35 0 0 -50z m-140 -5 c0 -41 -2 -45 -25 -45 -23 0
-25 4 -25 45 0 41 2 45 25 45 23 0 25 -4 25 -45z m140 -210 l0 -55 -35 0 -35
0 0 55 0 55 35 0 35 0 0 -55z m170 -3 l0 -57 -45 3 -45 4 0 54 0 54 45 0 45 0
0 -58z m250 -7 l0 -65 -54 0 c-82 0 -86 3 -86 71 l0 59 70 0 70 0 0 -65z
m-560 6 c0 -46 -1 -48 -25 -43 -22 4 -25 9 -25 48 0 40 2 44 25 44 23 0 25 -3
25 -49z m0 -210 c0 -46 -1 -48 -25 -43 -22 4 -25 9 -25 48 0 40 2 44 25 44 23
0 25 -3 25 -49z m140 -1 l0 -50 -35 0 -35 0 0 50 0 50 35 0 35 0 0 -50z m170
-5 l0 -55 -45 0 -45 0 0 55 0 55 45 0 45 0 0 -55z m250 -21 l0 -66 -31 6 c-17
3 -49 6 -70 6 l-39 0 0 60 0 60 70 0 70 0 0 -66z m-560 -184 c0 -45 -1 -47
-25 -42 -22 4 -25 9 -25 52 0 45 1 47 25 42 22 -4 25 -9 25 -52z m140 -6 c0
-54 -1 -56 -22 -50 -13 3 -29 6 -35 6 -9 0 -13 17 -13 50 l0 50 35 0 35 0 0
-56z m141 46 c29 0 29 -1 29 -55 l0 -55 -45 0 -45 0 0 61 c0 52 2 60 16 55 9
-3 29 -6 45 -6z m277 -81 l3 -66 -53 8 c-29 4 -61 8 -70 8 -15 1 -18 11 -18
61 l0 61 68 -3 67 -3 3 -66z m-567 -119 c5 0 9 -22 9 -49 0 -46 -1 -48 -25
-43 -23 4 -25 9 -25 54 0 42 3 49 16 44 9 -3 20 -6 25 -6z m133 -6 c12 -4 16
-20 16 -56 l0 -49 -32 3 c-32 3 -33 4 -36 56 -3 46 -1 52 17 52 10 0 26 -3 35
-6z m155 -10 c30 -6 31 -8 31 -60 0 -53 -1 -54 -29 -54 -54 0 -61 8 -61 66 0
58 1 59 59 48z m249 -24 l32 0 0 -66 0 -66 -52 7 c-90 11 -88 9 -88 77 l0 61
38 -7 c20 -3 52 -6 70 -6z"/>
<path d="M10520 5775 c-91 -41 -182 -80 -202 -89 l-38 -14 0 -99 0 -98 50 -22
50 -22 0 39 c0 21 4 41 8 44 5 3 59 23 120 45 l112 40 0 -59 0 -59 -102 -32
c-85 -26 -98 -33 -82 -42 35 -20 255 -117 265 -117 5 0 9 117 9 280 0 218 -3
280 -12 279 -7 -1 -87 -34 -178 -74z"/>
<path d="M10740 5556 l0 -286 40 -20 c54 -27 61 -26 58 15 -1 19 0 37 3 40 3
3 32 -6 64 -19 l59 -24 -3 -45 c-2 -44 -1 -47 38 -66 22 -12 43 -21 46 -21 3
0 5 20 5 45 l0 45 50 -25 c49 -25 50 -26 50 -70 0 -25 -2 -45 -4 -45 -2 0 -34
13 -72 29 -564 234 -777 321 -780 318 -2 -2 -3 -1014 -2 -2249 l3 -2246 457
166 458 167 0 2147 0 2146 -32 19 c-18 11 -115 70 -216 131 -101 62 -192 117
-203 122 -19 10 -19 3 -19 -274z m168 -36 c28 -17 52 -34 53 -38 5 -45 2 -97
-6 -97 -6 0 -34 9 -62 19 l-53 20 0 63 c0 35 3 63 8 63 4 0 31 -14 60 -30z
m242 -175 c0 -25 -2 -45 -4 -45 -2 0 -24 9 -50 20 -46 21 -46 21 -46 71 l0 49
50 -25 c49 -25 50 -26 50 -70z m-532 -304 c3 -71 14 -67 -93 -31 l-49 17 -1
54 c-2 81 -2 81 73 50 l67 -27 3 -63z m149 4 c47 -20 49 -24 45 -79 -4 -51 -7
-52 -57 -32 -34 15 -35 17 -35 70 0 31 2 56 5 56 3 0 22 -7 42 -15z m173 -70
c27 -14 30 -20 30 -64 l0 -49 -35 11 c-34 10 -35 11 -35 64 0 29 2 53 5 53 4
0 19 -7 35 -15z m160 -110 c0 -46 -7 -53 -41 -35 -15 8 -19 22 -19 61 l0 50
30 -16 c27 -14 30 -21 30 -60z m-548 39 l68 -26 0 -59 c0 -32 -3 -59 -6 -59
-3 0 -36 9 -72 20 l-67 20 0 65 c0 36 2 65 5 65 2 0 35 -12 72 -26z m222 -79
c20 -8 37 -21 37 -28 2 -24 0 -90 -4 -93 -2 -2 -21 2 -43 9 -39 14 -39 15 -42
70 -2 32 1 57 6 57 5 0 26 -7 46 -15z m170 -65 c23 -8 26 -15 26 -60 0 -27 -2
-50 -4 -50 -1 0 -17 5 -35 11 -29 10 -31 14 -31 60 0 52 3 55 44 39z m134 -46
c19 -6 22 -13 22 -56 0 -42 -3 -49 -16 -44 -9 3 -22 6 -30 6 -10 0 -14 14 -14
50 0 52 1 53 38 44z m-515 -38 l57 -20 0 -62 0 -62 -70 21 c-76 22 -72 16 -72
107 0 48 -8 46 85 16z m231 -76 c16 -6 23 -15 21 -27 -2 -10 -4 -35 -4 -55
l-1 -37 -42 13 -43 12 -3 58 c-3 58 -3 58 22 52 14 -3 36 -10 50 -16z m145
-51 c29 -10 31 -14 31 -60 0 -52 -3 -55 -44 -39 -23 8 -26 15 -26 60 0 27 2
50 4 50 1 0 17 -5 35 -11z m139 -45 c19 -6 22 -13 22 -56 0 -42 -3 -49 -16
-44 -9 3 -22 6 -30 6 -10 0 -14 14 -14 50 0 52 1 53 38 44z m-460 -134 c2 -48
0 -61 -10 -58 -7 3 -39 11 -70 18 l-56 13 -4 64 c-2 36 -2 66 0 68 2 2 34 -7
70 -19 l67 -23 3 -63z m180 9 c19 -7 22 -16 22 -62 l0 -54 -45 10 -45 10 0 59
c0 65 -3 63 68 37z m150 -45 c19 -6 22 -13 22 -55 0 -42 -3 -49 -19 -49 -42 0
-51 10 -51 61 0 51 4 54 48 43z m130 -40 c19 -6 22 -13 22 -56 0 -42 -3 -49
-16 -44 -9 3 -22 6 -30 6 -10 0 -14 14 -14 50 0 52 1 53 38 44z m-515 -68 l57
-17 0 -60 0 -61 -32 7 c-109 22 -106 20 -110 80 -4 64 0 78 16 72 6 -2 37 -12
69 -21z m218 -58 l39 -11 0 -55 0 -54 -31 6 c-17 3 -38 6 -45 6 -10 0 -14 16
-14 60 0 33 3 60 6 60 4 0 24 -5 45 -12z m163 -48 c23 -8 26 -15 26 -60 0 -50
0 -50 -27 -44 -42 10 -43 12 -43 65 0 52 3 55 44 39z m144 -86 c3 -50 2 -51
-23 -47 -23 5 -25 10 -25 55 0 46 2 49 23 46 19 -3 22 -10 25 -54z m-533 -30
l65 -16 0 -59 c0 -43 -4 -59 -14 -59 -30 0 -120 21 -125 29 -5 8 -6 43 -2 104
1 21 -3 21 76 1z m228 -55 l37 -10 0 -55 0 -55 -37 7 c-49 8 -54 14 -55 55 -1
77 -3 75 55 58z m180 -46 c4 -2 7 -27 7 -55 0 -47 -1 -50 -22 -44 -13 3 -29 6
-35 6 -9 0 -13 18 -13 55 0 55 0 55 28 49 15 -4 30 -9 35 -11z m125 -75 c3
-46 2 -48 -22 -48 -24 0 -26 3 -26 51 0 47 2 50 23 47 19 -3 22 -10 25 -50z
m-526 -50 l58 -12 0 -64 c0 -50 -3 -63 -13 -59 -8 3 -39 8 -70 12 -32 4 -57
11 -58 16 -1 5 -1 18 -1 29 0 101 -5 96 84 78z m250 -54 c5 -3 8 -29 8 -58 l0
-52 -42 5 -43 6 -3 59 -3 58 38 -7 c21 -4 41 -9 45 -11z m142 -30 c12 -4 16
-20 16 -55 0 -42 -3 -49 -19 -49 -42 0 -51 10 -51 61 0 51 11 60 54 43z m134
-76 c3 -46 2 -48 -22 -48 -24 0 -26 3 -26 51 0 47 2 50 23 47 19 -3 22 -10 25
-50z m-538 -63 c72 -13 70 -11 70 -76 l0 -60 -47 6 c-98 13 -93 8 -93 81 0 57
2 65 18 60 9 -2 33 -7 52 -11z m239 -41 c30 -6 31 -8 31 -60 0 -52 -1 -54 -27
-54 -63 0 -68 6 -65 65 4 58 6 60 61 49z m169 -34 c8 0 12 -17 12 -50 l0 -50
-35 0 -35 0 0 56 c0 54 1 56 23 50 12 -3 28 -6 35 -6z m130 -72 c3 -46 2 -48
-22 -48 -24 0 -26 3 -26 51 0 47 2 50 23 47 19 -3 22 -10 25 -50z m-531 -79
l63 -11 0 -60 0 -61 -67 7 c-36 4 -69 9 -72 10 -8 5 -1 126 7 126 3 0 34 -5
69 -11z m236 -34 c26 -5 27 -8 27 -61 l0 -57 -42 7 c-23 4 -45 11 -49 17 -4 8
-5 98 0 106 1 1 13 -1 64 -12z m177 -81 c0 -54 -1 -56 -22 -50 -13 3 -29 6
-35 6 -9 0 -13 17 -13 50 l0 50 35 0 35 0 0 -56z m120 -14 c0 -47 -2 -50 -25
-50 -23 0 -25 3 -25 50 0 47 2 50 25 50 23 0 25 -3 25 -50z m-522 -96 l52 -7
0 -61 0 -61 -70 3 -70 4 0 64 c0 72 -5 69 88 58z m250 -87 l3 -57 -43 6 c-24
4 -44 7 -45 8 -2 2 -5 51 -4 79 1 27 3 28 44 25 l42 -3 3 -58z m136 37 c12 -4
16 -20 16 -55 l0 -49 -35 0 -35 0 0 55 c0 57 10 66 54 49z m136 -54 c0 -22 1
-43 3 -47 1 -5 -10 -9 -25 -11 -27 -3 -28 -2 -28 47 0 48 2 51 25 51 23 0 25
-4 25 -40z m-492 -126 c20 -4 22 -10 22 -64 l0 -60 -39 0 c-21 0 -52 3 -69 6
-27 5 -31 10 -34 48 -6 79 -3 84 50 79 26 -2 57 -6 70 -9z m222 -70 l0 -54
-45 0 -45 0 0 58 0 57 45 -3 45 -4 0 -54z m131 36 c16 0 19 -7 19 -50 l0 -50
-35 0 -35 0 0 56 c0 47 3 55 16 50 9 -3 24 -6 35 -6z m139 -60 c0 -47 -2 -50
-25 -50 -23 0 -25 3 -25 50 0 47 2 50 25 50 23 0 25 -3 25 -50z m-494 -130
c23 0 24 -4 24 -60 l0 -60 -70 0 -70 0 0 66 0 67 46 -7 c26 -3 57 -6 70 -6z
m195 -10 c29 0 29 -1 29 -55 l0 -55 -45 0 -45 0 0 61 c0 52 2 60 16 55 9 -3
29 -6 45 -6z m179 -60 l0 -50 -35 0 -35 0 0 50 0 50 35 0 35 0 0 -50z m120
-10 c0 -47 -2 -50 -25 -50 -23 0 -25 3 -25 50 0 47 2 50 25 50 23 0 25 -3 25
-50z m-470 -199 c0 -67 -5 -71 -92 -71 -52 0 -56 7 -49 88 l3 42 69 0 69 0 0
-59z m186 49 c10 0 14 -15 14 -55 l0 -55 -45 0 -45 0 0 61 0 62 31 -7 c17 -3
38 -6 45 -6z m164 -55 l0 -55 -35 0 -35 0 0 55 0 55 35 0 35 0 0 -55z m120 -5
c0 -47 -2 -50 -25 -50 -23 0 -25 3 -25 50 0 47 2 50 25 50 23 0 25 -3 25 -50z
m-517 -160 l47 0 0 -60 0 -60 -70 0 -70 0 0 66 c0 64 1 66 23 60 12 -3 43 -6
70 -6z m247 -44 c0 -58 -7 -66 -61 -66 -29 0 -29 0 -29 60 l0 60 45 0 45 0 0
-54z m150 -6 l0 -50 -35 0 -35 0 0 50 0 50 35 0 35 0 0 -50z m120 0 c0 -47 -2
-50 -25 -50 -23 0 -25 3 -25 50 0 47 2 50 25 50 23 0 25 -3 25 -50z m-270
-215 c0 -40 -4 -55 -14 -55 -7 0 -28 -3 -45 -6 l-31 -6 0 61 0 61 45 0 45 0 0
-55z m150 5 c0 -33 -4 -50 -12 -50 -7 0 -23 -3 -35 -6 -22 -6 -23 -4 -23 50
l0 56 35 0 35 0 0 -50z m120 0 c0 -47 -2 -50 -25 -50 -23 0 -25 3 -25 50 0 47
2 50 25 50 23 0 25 -3 25 -50z m-470 -19 l0 -58 -46 -7 c-96 -13 -94 -14 -94
59 l0 65 70 0 70 0 0 -59z m348 -193 c-3 -52 -4 -53 -35 -56 l-33 -3 0 55 0
56 36 0 35 0 -3 -52z m120 5 c-3 -41 -6 -48 -25 -51 -21 -3 -23 0 -23 47 0 48
2 51 26 51 24 0 25 -2 22 -47z m-268 -18 c0 -50 -2 -55 -22 -55 -13 0 -33 -3
-45 -6 -22 -6 -23 -4 -23 55 l0 61 45 0 45 0 0 -55z m-200 -15 c0 -66 4 -63
-92 -74 l-48 -6 0 65 0 64 38 4 c20 2 52 4 70 5 l32 2 0 -60z m350 -184 l0
-54 -35 -4 -35 -4 0 52 c0 50 2 53 28 57 15 2 30 5 35 6 4 0 7 -23 7 -53z
m120 10 c0 -31 -5 -46 -16 -50 -37 -14 -44 -7 -44 44 0 49 1 50 30 50 29 0 30
-2 30 -44z m-272 -81 c-2 -1 -22 -5 -45 -8 l-43 -5 0 58 0 59 43 3 42 3 3 -54
c2 -29 2 -54 0 -56z m-198 31 l0 -63 -70 -10 -71 -9 3 65 3 66 65 6 c36 3 66
6 68 7 1 1 2 -27 2 -62z"/>
<path d="M1650 4757 l0 -314 -387 -185 -388 -184 -3 -1392 -2 -1392 730 0 730
0 0 1830 c0 1007 -3 1830 -7 1830 -5 0 -152 27 -327 60 -175 33 -325 60 -332
60 -12 0 -14 -57 -14 -313z m442 -237 c2 -50 2 -95 0 -100 -2 -6 -47 -10 -103
-10 l-99 0 0 100 0 100 99 0 100 0 3 -90z m-2 -390 l0 -100 -100 0 -100 0 0
100 0 100 100 0 100 0 0 -100z m-680 -114 l0 -74 -105 -35 -105 -36 0 67 0 67
93 42 c50 23 98 42 105 42 8 1 12 -20 12 -73z m-282 -108 l-3 -61 -50 -17
c-105 -36 -95 -38 -95 23 l0 54 68 31 c37 17 71 31 75 31 4 1 7 -27 5 -61z
m282 -173 l0 -74 -95 -31 c-52 -16 -100 -30 -105 -30 -6 0 -10 28 -10 64 l0
63 98 41 c53 23 100 41 105 42 4 0 7 -34 7 -75z m680 -65 l0 -100 -100 0 -100
0 0 100 0 100 100 0 100 0 0 -100z m-960 -39 l0 -59 -69 -21 c-38 -12 -72 -21
-75 -21 -3 0 -6 24 -6 53 l0 54 63 25 c88 37 87 37 87 -31z m278 -178 l-3 -77
-95 -28 c-52 -15 -99 -28 -103 -28 -4 0 -7 30 -5 66 l3 66 95 39 c52 21 99 38
103 38 4 1 7 -34 5 -76z m-280 -95 l-3 -62 -60 -18 c-87 -26 -87 -26 -83 34
l3 52 65 27 c36 15 69 28 73 28 4 1 7 -27 5 -61z m962 -148 l0 -100 -100 0
-100 0 0 100 0 100 100 0 100 0 0 -100z m-680 -38 l0 -78 -92 -23 c-51 -13
-99 -25 -106 -28 -10 -4 -12 11 -10 63 l3 68 95 37 c52 20 98 37 103 38 4 1 7
-34 7 -77z m-280 -92 c0 -33 -2 -60 -5 -60 -3 0 -37 -9 -76 -19 l-70 -20 3 56
3 56 60 23 c86 33 85 33 85 -36z m280 -188 l0 -78 -105 -26 -105 -25 0 67 0
67 103 36 c56 20 103 36 105 36 1 1 2 -34 2 -77z m-282 -84 l-3 -62 -45 -11
c-112 -29 -100 -32 -100 29 l0 54 68 25 c37 14 71 26 75 26 4 1 7 -27 5 -61z
m962 -58 l0 -100 -100 0 -100 0 0 100 0 100 100 0 100 0 0 -100z m-682 -216
c-4 -3 -188 -44 -200 -44 -4 0 -8 29 -8 64 l0 64 103 35 102 34 3 -75 c2 -41
1 -76 0 -78z m-278 -3 l0 -59 -52 -12 c-29 -6 -63 -13 -75 -16 -22 -6 -23 -3
-23 49 l0 55 63 20 c90 29 87 30 87 -37z m280 -206 c0 -41 -2 -75 -4 -75 -2 0
-48 -9 -101 -20 -53 -11 -99 -20 -102 -20 -2 0 -3 30 -1 67 l3 67 90 27 c50
15 96 28 103 28 8 1 12 -20 12 -74z m680 -35 l0 -100 -100 0 -100 0 0 100 0
100 100 0 100 0 0 -100z m-962 -32 l-3 -62 -60 -13 c-88 -18 -85 -20 -85 40
l0 53 68 21 c37 11 71 21 75 22 4 0 7 -27 5 -61z m282 -213 c0 -85 13 -75
-127 -98 l-83 -14 0 66 0 67 93 26 c50 14 98 26 105 27 8 1 12 -20 12 -74z
m-280 -64 l0 -59 -63 -11 c-92 -16 -88 -18 -85 41 l3 53 60 17 c88 24 85 26
85 -41z m960 -146 l0 -95 -100 0 -100 0 0 95 0 95 100 0 100 0 0 -95z m-682
-72 l-3 -78 -80 -12 c-134 -19 -125 -23 -125 51 l0 64 98 25 c53 14 101 26
105 26 4 1 7 -34 5 -76z m-280 -55 l-3 -62 -72 -11 -73 -11 0 53 0 52 43 11
c23 6 53 15 67 20 14 5 29 9 33 9 4 1 7 -27 5 -61z"/>
<path d="M11740 5039 c-80 -15 -220 -42 -312 -60 l-168 -32 0 -1828 0 -1829
730 0 730 0 -2 1391 -3 1392 -385 182 -385 183 -3 316 -2 316 -28 -1 c-15 -1
-92 -14 -172 -30z m-50 -529 l0 -100 -100 0 -100 0 0 100 0 100 100 0 100 0 0
-100z m0 -380 l0 -100 -100 0 -100 0 0 100 0 100 100 0 100 0 0 -100z m617
-91 l83 -38 0 -65 0 -65 -105 36 -105 35 0 75 c0 87 -10 85 127 22z m236 -103
l67 -29 0 -54 c0 -29 -3 -53 -7 -53 -4 0 -37 10 -75 22 l-68 22 0 64 c0 35 4
62 8 60 4 -1 38 -16 75 -32z m-245 -172 l92 -37 0 -68 0 -67 -102 33 -103 32
-3 78 c-2 60 0 76 10 72 7 -2 55 -22 106 -43z m-608 -94 l0 -100 -100 0 -100
0 0 100 0 100 100 0 100 0 0 -100z m852 -7 l68 -28 0 -52 c0 -29 -3 -53 -6
-53 -4 0 -38 9 -75 20 l-69 21 0 59 c0 33 3 60 7 60 4 0 37 -12 75 -27z m-244
-178 l92 -37 0 -64 c0 -35 -3 -64 -7 -64 -5 0 -51 13 -103 28 l-95 28 -3 78
c-2 61 0 77 10 73 7 -2 55 -21 106 -42z m238 -93 l69 -28 3 -56 3 -55 -76 21
-75 21 0 62 c0 35 2 63 3 63 2 0 35 -13 73 -28z m-846 -182 l0 -100 -100 0
-100 0 0 100 0 100 100 0 100 0 0 -100z m673 -29 c26 -10 27 -14 27 -77 0 -49
-3 -65 -12 -62 -7 3 -55 16 -105 29 l-93 24 0 77 0 77 78 -28 c42 -16 89 -34
105 -40z m178 -65 l64 -24 3 -55 3 -56 -33 9 c-18 5 -52 14 -75 20 l-43 11 0
59 c0 33 4 60 9 60 5 0 37 -11 72 -24z m-151 -288 l0 -66 -52 14 c-29 7 -77
18 -105 24 l-53 11 0 79 0 79 105 -37 105 -37 0 -67z m163 10 l57 -20 0 -55
c0 -44 -3 -54 -15 -50 -8 4 -41 12 -75 19 l-60 12 0 64 c0 57 2 63 18 57 9 -4
43 -16 75 -27z m-863 -88 l0 -100 -100 0 -100 0 0 100 0 100 100 0 100 0 0
-100z m603 -100 l97 -31 0 -66 0 -65 -32 6 c-18 3 -66 13 -105 22 l-73 16 0
74 c0 41 4 74 8 74 4 0 51 -14 105 -30z m249 -82 l68 -22 0 -53 c0 -29 -2 -53
-6 -53 -3 0 -36 7 -75 16 l-69 16 0 59 c0 32 3 59 7 59 4 0 37 -10 75 -22z
m-252 -197 l95 -28 3 -67 c2 -36 1 -66 -1 -66 -5 0 -141 26 -184 36 -21 4 -23
10 -23 79 0 41 3 75 8 75 4 0 50 -13 102 -29z m-600 -81 l0 -100 -100 0 -100
0 0 100 0 100 100 0 100 0 0 -100z m893 -7 c25 -5 27 -9 27 -60 l0 -55 -32 6
c-18 4 -52 9 -75 13 l-43 6 0 63 0 63 48 -15 c26 -8 59 -17 75 -21z m-273
-197 l75 -22 3 -65 3 -66 -83 14 c-141 23 -128 13 -128 98 l0 75 28 -6 c15 -4
61 -17 102 -28z m230 -64 l65 -19 3 -53 3 -53 -53 7 c-101 13 -98 11 -98 77 0
32 3 59 8 59 4 0 36 -8 72 -18z m-850 -187 l0 -95 -100 0 -100 0 0 95 0 95
100 0 100 0 0 -95z m613 -26 l87 -21 0 -64 c0 -74 9 -70 -125 -51 l-80 12 -3
78 c-3 72 -1 78 15 73 10 -3 57 -15 106 -27z m265 -69 l42 -11 0 -52 0 -53
-75 10 -75 9 0 63 0 62 33 -8 c17 -5 51 -14 75 -20z"/>
</g>
</svg>
