<?xml version="1.0" standalone="no"?>
<!DOCTYPE svg PUBLIC "-//W3C//DTD SVG 20010904//EN"
 "http://www.w3.org/TR/2001/REC-SVG-20010904/DTD/svg10.dtd">
<svg version="1.0" xmlns="http://www.w3.org/2000/svg"
 width="512.000000pt" height="512.000000pt" viewBox="0 0 512.000000 512.000000"
 preserveAspectRatio="xMidYMid meet">

<g transform="translate(0.000000,512.000000) scale(0.100000,-0.100000)"
fill="#000000" stroke="none">
<path d="M452 5100 c-109 -29 -187 -74 -273 -160 -56 -55 -86 -95 -113 -150
-71 -146 -66 21 -64 -2412 l3 -2193 22 -40 c25 -47 74 -95 123 -121 34 -18 94
-19 1540 -22 1654 -3 1554 -6 1632 58 20 17 48 53 62 82 l26 52 0 330 1 331
795 885 c438 487 811 905 830 930 126 168 104 413 -51 559 -152 144 -375 157
-543 33 -28 -20 -256 -266 -507 -547 -251 -280 -472 -526 -491 -545 l-34 -35
0 553 0 552 398 0 c465 0 474 1 552 80 81 80 80 70 80 704 0 615 -2 634 -66
766 -27 55 -57 95 -113 150 -87 87 -164 131 -277 160 -75 20 -116 20 -1768 19
-1632 0 -1694 -1 -1764 -19z m2927 -202 c-47 -59 -88 -138 -115 -218 -18 -52
-19 -126 -24 -1400 l-5 -1345 -164 -183 c-159 -177 -180 -193 -181 -141 0 31
-61 110 -106 139 -26 16 -66 32 -90 36 l-44 6 0 639 0 639 133 0 c150 0 188 8
230 47 40 39 57 75 57 122 0 45 -205 640 -240 696 -11 19 -40 43 -64 54 -40
20 -59 21 -374 21 -260 0 -340 -3 -365 -14 -69 -29 -83 -57 -203 -397 -63
-177 -114 -337 -114 -355 0 -69 37 -124 105 -155 33 -15 65 -19 178 -19 l137
0 0 -639 0 -639 -45 -6 c-61 -10 -133 -61 -170 -120 -28 -47 -30 -56 -34 -173
l-3 -123 -129 0 -129 0 0 136 c0 135 0 136 26 157 45 35 64 91 64 190 0 78 3
92 25 121 38 50 55 100 55 161 0 94 -47 175 -125 216 l-44 23 -3 311 c-3 306
-3 311 -28 360 -31 64 -101 134 -165 165 -49 25 -55 25 -341 28 -279 3 -293 2
-349 -19 -79 -30 -154 -100 -191 -182 l-29 -62 -4 -300 -3 -300 -46 -30 c-96
-62 -139 -173 -108 -279 9 -31 30 -71 46 -90 29 -32 30 -37 30 -130 0 -104 9
-133 54 -175 26 -24 26 -26 26 -168 0 -135 -1 -143 -19 -143 -26 0 -61 -46
-61 -81 0 -15 11 -41 24 -56 l24 -28 1087 -3 c1025 -2 1086 -3 1081 -20 -4 -9
-59 -161 -124 -337 l-117 -320 -715 -5 c-393 -3 -716 -6 -717 -8 -12 -11 -33
-65 -33 -82 0 -12 13 -35 29 -51 l29 -29 751 0 750 0 33 29 c18 16 185 103
371 194 l337 165 0 -253 c0 -234 -1 -255 -19 -276 l-19 -24 -1487 -3 -1486 -2
-30 29 -29 29 0 2160 c0 1417 3 2178 10 2213 29 155 156 292 310 333 47 13
260 15 1493 15 l1437 1 -41 -52z m566 37 c160 -42 285 -174 315 -334 13 -70
14 -1100 0 -1135 -20 -55 -34 -56 -457 -54 l-388 3 -3 535 c-1 294 2 570 7
612 31 266 274 438 526 373z m-1154 -1385 c55 -156 99 -290 99 -297 0 -10
-104 -13 -506 -13 -401 0 -505 3 -502 13 3 6 52 141 109 300 l103 287 299 -2
300 -3 98 -285z m2015 -396 c56 -27 110 -88 130 -146 21 -64 14 -154 -15 -204
-25 -42 -310 -364 -323 -364 -5 0 -92 75 -194 166 -182 165 -184 167 -167 188
49 57 194 218 247 274 87 91 135 114 227 108 31 -2 74 -12 95 -22z m-3424
-116 c66 -50 68 -63 67 -380 l0 -283 -47 -30 c-26 -16 -60 -51 -77 -77 l-30
-47 -227 0 -226 -1 -27 46 c-17 29 -46 58 -81 80 l-54 35 0 262 c0 149 5 278
10 299 6 21 23 52 37 69 48 57 62 59 354 56 l266 -2 35 -27z m1096 -605 l-3
-638 -82 -3 -83 -3 0 641 0 640 85 0 85 0 -2 -637z m1806 53 c95 -85 178 -162
185 -170 10 -12 -84 -122 -585 -679 l-597 -665 -189 170 -189 170 23 29 c57
71 1164 1298 1171 1299 5 0 86 -69 181 -154z m-3645 -281 c16 -8 31 -22 35
-30 33 -86 -56 -160 -127 -105 -48 38 -41 110 13 137 32 16 45 16 79 -2z m934
3 c79 -42 52 -158 -37 -158 -26 0 -40 7 -61 32 -32 38 -29 81 11 116 28 25 54
28 87 10z m-263 -188 c27 -66 138 -140 209 -140 18 0 21 -6 21 -45 l0 -45
-470 0 -470 0 0 45 c0 42 2 45 28 45 66 1 157 63 193 133 l19 37 229 0 229 0
12 -30z m-480 -412 c0 -6 -10 -63 -22 -125 l-22 -113 -53 0 -53 0 0 125 0 125
75 0 c51 0 75 -4 75 -12z m322 -113 l25 -125 -108 0 c-60 0 -109 2 -109 4 0 5
38 193 45 224 5 20 11 22 64 22 l58 0 25 -125z m298 0 l0 -125 -50 0 c-27 0
-50 2 -50 4 0 5 -38 193 -45 224 -5 21 -3 22 70 22 l75 0 0 -125z m1255 100
c23 -22 25 -31 25 -125 l0 -100 -340 0 -340 0 0 99 c0 90 2 100 25 125 l24 26
291 0 291 0 24 -25z m312 -610 c68 -60 119 -113 115 -117 -13 -13 -502 -247
-502 -240 0 4 43 125 96 269 l97 263 36 -33 c20 -17 91 -81 158 -142z"/>
<path d="M560 4767 c-54 -27 -61 -99 -13 -137 25 -20 43 -20 995 -20 l969 0
24 25 c35 34 33 78 -4 116 l-29 29 -959 0 c-752 0 -963 -3 -983 -13z"/>
<path d="M2766 4758 c-40 -35 -43 -78 -11 -116 l27 -32 119 0 c114 0 121 1
144 25 25 24 32 65 19 100 -13 32 -59 45 -168 45 -95 0 -107 -2 -130 -22z"/>
<path d="M455 485 c-46 -45 -24 -125 39 -141 13 -3 90 -4 171 -2 140 3 148 4
166 27 29 36 25 94 -7 120 -24 19 -40 21 -186 21 -155 0 -159 -1 -183 -25z"/>
</g>
</svg>
